<svg width="210" height="44" viewBox="0 0 210 44" fill="none" xmlns="http://www.w3.org/2000/svg">
<path d="M174.683 1.06238H171.315V2.75861C171.021 9.08371 169.073 11.485 167.024 13.9987C166.517 14.622 166.009 15.276 165.472 16.0423V14.1724C165.472 8.04145 166.101 3.74978 167.125 0.888672L161.342 1.04195L155.559 0.888672C156.574 3.79065 157.213 8.25603 157.213 14.5505C157.213 21.3047 156.513 25.954 155.326 28.856L162.063 28.6823H165.472V26.3117C165.57 22.5459 167.048 18.9499 169.621 16.216C170.179 15.5314 170.757 14.8161 171.315 14.0191V15.6132C171.315 21.7441 170.686 26.0256 169.662 28.8969L175.444 28.7538L181.237 28.8969C180.223 26.0051 179.574 21.5398 179.574 15.2453C179.574 8.49105 180.274 3.84175 181.471 0.939766L174.683 1.06238Z" fill="white"/>
<path d="M195.826 0C188.034 0 182.008 6.50903 182.008 15.1945C182.008 23.8801 186.959 29.3059 195.674 29.3059C203.465 29.3059 209.522 22.9604 209.522 14.3158C209.522 5.67113 204.632 0 195.826 0ZM199.783 15.45C198.119 20.7635 195.217 25.8522 192.427 25.8522C190.631 25.8522 190.327 23.0013 190.327 21.9284C190.41 19.185 190.878 16.4672 191.717 13.856C193.381 8.54246 196.282 3.45377 199.062 3.45377C200.868 3.45377 201.162 6.30466 201.162 7.37758C201.077 10.1199 200.613 12.8369 199.783 15.45Z" fill="white"/>
<path d="M80.1577 26.7306C79.3869 22.9363 79.0465 19.066 79.1431 15.1942C79.1431 8.43996 79.833 3.79066 81.0302 0.888672L75.1559 1.05217L69.2209 0.888672C69.94 3.05589 70.3931 5.30357 70.5702 7.58163C70.8593 9.61182 70.9882 11.6619 70.9557 13.7126C70.9557 20.8654 69.8804 23.8593 68.3383 23.8593C66.7962 23.8593 65.741 20.8551 65.741 13.7126C65.7125 11.6036 65.8482 9.49556 66.1468 7.40791C66.3331 5.18875 66.7827 3.00007 67.4861 0.888672L61.5409 1.05217H61.3583L55.4639 0.888672C56.661 3.74978 57.361 8.39909 57.361 15.1942C57.361 21.4887 56.7523 25.954 55.7073 28.8458L62.0584 28.6721H66.2078C66.4107 28.6721 83.5259 27.6503 79.275 32.4937C76.4749 35.6818 68.6832 34.0673 66.3092 29.2954C62.9511 33.7914 64.4628 43.8258 74.7096 43.8258C85.1492 43.8258 85.8695 28.4984 80.178 26.7306" fill="white"/>
<path d="M116.316 17.8613H128.704L128.896 12.4047C126.002 13.8245 122.987 14.9804 119.887 15.8585V10.1976H120.131C122.687 10.1976 125.518 12.8134 125.518 12.8134V9.07356V5.85481C125.447 5.97743 122.738 8.42981 120.364 8.42981H119.887V2.95283C122.987 3.83094 126.002 4.98681 128.896 6.4066L128.704 1.05223H116.296L110.767 0.90918C111.781 2.67694 111.933 6.54965 111.933 9.56403C111.933 12.5784 111.72 16.2161 110.533 17.9634L116.316 17.8613Z" fill="white"/>
<path d="M46.6093 1.0621H43.1599C43.1599 8.69513 41.1308 11.2803 38.9293 14.0188C38.4017 14.6932 37.9147 15.3676 37.3567 16.0625V14.0904C37.3567 7.95942 37.9857 3.66775 39.0104 0.806641L33.2276 0.959916L27.4346 0.806641C28.4492 3.70862 29.0984 8.174 29.0984 14.4684C29.0984 21.2227 28.3983 25.872 27.2012 28.774L33.9479 28.6003H37.3973C37.3973 21.3249 39.3147 18.9134 41.5264 16.1136C42.0641 15.4392 42.6222 14.7341 43.1599 13.9473V15.5311C43.1599 21.6621 42.5309 25.9435 41.4961 28.8149L47.2891 28.6718L53.0719 28.8149C52.0573 25.9231 51.4182 21.4577 51.4182 15.1633C51.4182 8.40902 52.1082 3.75972 53.3053 0.857735L46.6093 1.0621Z" fill="white"/>
<path d="M25.5663 28.7743C24.4302 25.5716 23.8269 22.2019 23.7807 18.8013V10.2486C23.852 7.07334 24.3747 3.92476 25.333 0.898892L18.9718 1.0726H6.71623L0.233324 0.888672C1.24786 3.79066 1.89718 8.25603 1.89718 14.5505C1.89718 21.3047 1.19715 25.954 0 28.856L5.88424 28.7028L11.8092 28.856C11.0939 26.6913 10.6407 24.4475 10.4598 22.1733C10.1759 20.1426 10.047 18.0929 10.0743 16.0423C10.0743 8.88957 11.1498 5.89562 12.6919 5.89562C14.234 5.89562 15.289 8.89978 15.289 16.0423C15.3176 18.1513 15.182 20.2594 14.8833 22.347C14.6972 24.5629 14.2476 26.7482 13.544 28.856L19.4892 28.7028H19.6719L25.5663 28.7743Z" fill="white"/>
<path d="M126.198 23.563C118.904 17.8918 111.488 21.2638 107.328 24.1863C106.938 21.25 106.758 18.2893 106.79 15.327C106.79 8.57277 107.49 3.92347 108.677 1.02148L102.803 1.18498L96.8681 1.02148C97.5872 3.18871 98.0403 5.43639 98.2174 7.71444C98.5065 9.74463 98.6354 11.7947 98.6029 13.8454C98.6029 20.9982 97.5276 23.9921 95.9855 23.9921C94.4434 23.9921 93.3882 20.988 93.3882 13.8454C93.3571 11.736 93.4962 9.62747 93.8042 7.54073C93.9838 5.32151 94.4301 3.13243 95.1333 1.02148L89.1881 1.18498H89.0055L83.1211 1.02148C84.3081 3.88259 85.0082 8.5319 85.0082 15.327C85.0082 21.6215 84.3995 26.0869 83.3545 28.9888L89.7056 28.8151H112.309C115.921 28.9173 131.525 28.0283 126.898 33.7403C124.078 37.235 114.024 34.6395 111.295 30.1742C108.606 34.9359 110.656 43.9995 120.426 43.9995C131.139 43.9586 134.426 29.9596 126.198 23.563Z" fill="white"/>
<path d="M145.12 1.04135C142.857 1.04135 140.219 1.04135 138.748 1.04135H137.592L131.048 0.857422C132.062 3.75941 132.701 8.22478 132.701 14.5192C132.701 21.2735 132.001 25.9228 130.814 28.8248L136.689 28.6715L142.624 28.8248C141.709 25.9574 141.197 22.9756 141.102 19.9655C144.663 23.5726 155.001 21.9479 155.001 11.464C155.001 4.74035 150.689 1.10266 145.12 1.05157V1.04135ZM140.99 17.6256C140.99 16.9614 140.99 16.287 140.99 15.5819V14.0901C140.99 8.72547 142.005 3.50395 144.612 3.50395C148.823 3.50395 145.911 15.2958 141.011 17.6256" fill="white"/>
</svg>
