<svg width="90" height="19" viewBox="0 0 90 19" fill="none" xmlns="http://www.w3.org/2000/svg">
<path d="M75.0356 0.4588H73.5888V1.19127C73.4624 3.92256 72.6257 4.95949 71.7454 6.04494C71.5275 6.3141 71.3096 6.5965 71.0786 6.92743V6.11996C71.0786 3.47249 71.3488 1.61927 71.789 0.383789L69.305 0.449976L66.8209 0.383789C67.2567 1.63692 67.5313 3.56516 67.5313 6.28322C67.5313 9.19984 67.2306 11.2075 66.7207 12.4606L69.6144 12.3856H71.0786V11.3619C71.1208 9.73579 71.7557 8.18295 72.861 7.00244C73.1007 6.70681 73.3491 6.39794 73.5888 6.05377V6.74211C73.5888 9.38957 73.3186 11.2384 72.8784 12.4783L75.3624 12.4165L77.8508 12.4783C77.4151 11.2296 77.1361 9.30132 77.1361 6.58326C77.1361 3.66664 77.4368 1.65898 77.9511 0.405853L75.0356 0.4588Z" fill="#229821"/>
<path d="M84.1171 0C80.7702 0 78.1816 2.81072 78.1816 6.56129C78.1816 10.3119 80.3083 12.6549 84.0517 12.6549C87.3986 12.6549 90.0003 9.91474 90.0003 6.18182C90.0003 2.4489 87.8998 0 84.1171 0ZM85.8167 6.6716C85.102 8.96607 83.8557 11.1635 82.6572 11.1635C81.8859 11.1635 81.7551 9.93239 81.7551 9.46909C81.7907 8.28445 81.9917 7.11087 82.3521 5.98326C83.0668 3.6888 84.3132 1.49141 85.5073 1.49141C86.283 1.49141 86.4094 2.72247 86.4094 3.18578C86.373 4.36998 86.1735 5.54323 85.8167 6.6716Z" fill="#229821"/>
<path d="M34.4314 11.5428C34.1003 9.90436 33.9541 8.2331 33.9956 6.5612C33.9956 3.64458 34.2919 1.63692 34.8062 0.383789L32.2829 0.45439L29.7335 0.383789C30.0424 1.31964 30.237 2.29023 30.3131 3.27394C30.4373 4.15061 30.4927 5.03587 30.4787 5.9214C30.4787 9.0101 30.0168 10.3029 29.3544 10.3029C28.692 10.3029 28.2387 9.00569 28.2387 5.9214C28.2265 5.01069 28.2848 4.1004 28.4131 3.19892C28.4931 2.24065 28.6862 1.29553 28.9883 0.383789L26.4346 0.45439H26.3561L23.8242 0.383789C24.3385 1.61927 24.6391 3.62693 24.6391 6.5612C24.6391 9.27926 24.3777 11.2075 23.9288 12.4562L26.6569 12.3812H28.4392C28.5264 12.3812 35.8782 11.94 34.0522 14.0315C32.8495 15.4081 29.5026 14.711 28.4828 12.6504C27.0403 14.5918 27.6897 18.9248 32.0912 18.9248C36.5755 18.9248 36.8849 12.3062 34.4401 11.5428" fill="#FF991F"/>
<path d="M49.9626 7.71281H55.2836L55.3663 5.35657C54.1229 5.96966 52.8279 6.46879 51.4966 6.84797V4.40348H51.6011C52.6993 4.40348 53.9152 5.53306 53.9152 5.53306V3.91811V2.5282C53.8847 2.58114 52.7211 3.64013 51.7014 3.64013H51.4966V1.27507C52.8279 1.65425 54.1229 2.15337 55.3663 2.76647L55.2836 0.454352H49.9538L47.5787 0.392578C48.0145 1.15593 48.0799 2.82824 48.0799 4.12991C48.0799 5.43158 47.9884 7.0024 47.4785 7.75693L49.9626 7.71281Z" fill="#FF991F"/>
<path d="M20.0203 0.458944H18.5386C18.5386 3.75503 17.667 4.87138 16.7214 6.05391C16.4948 6.34513 16.2856 6.63635 16.0459 6.9364V6.0848C16.0459 3.43734 16.3161 1.58411 16.7562 0.348633L14.2722 0.41482L11.7839 0.348633C12.2197 1.60176 12.4985 3.53 12.4985 6.24806C12.4985 9.16468 12.1978 11.1723 11.6836 12.4255L14.5816 12.3505H16.0633C16.0633 9.20881 16.8869 8.16747 17.837 6.95846C18.0679 6.66724 18.3077 6.36278 18.5386 6.02303V6.70695C18.5386 9.35442 18.2684 11.2032 17.8239 12.4431L20.3123 12.3813L22.7963 12.4431C22.3605 11.1944 22.0859 9.26617 22.0859 6.54811C22.0859 3.63149 22.3823 1.62383 22.8966 0.370696L20.0203 0.458944Z" fill="#FF991F"/>
<path d="M10.9819 12.4253C10.4939 11.0423 10.2348 9.58726 10.2149 8.11879V4.42558C10.2455 3.05445 10.4701 1.69483 10.8817 0.388202L8.14929 0.463213H2.88494L0.100224 0.383789C0.536016 1.63692 0.814929 3.56516 0.814929 6.28322C0.814929 9.19984 0.514234 11.2075 0 12.4606L2.52756 12.3944L5.07262 12.4606C4.76535 11.5259 4.5707 10.5569 4.49299 9.57489C4.37104 8.69799 4.31567 7.81291 4.32738 6.92743C4.32738 3.83873 4.78936 2.54588 5.45176 2.54588C6.11417 2.54588 6.56736 3.84314 6.56736 6.92743C6.57962 7.83814 6.52138 8.74842 6.39309 9.6499C6.31317 10.6067 6.12 11.5504 5.81781 12.4606L8.37155 12.3944H8.45001L10.9819 12.4253Z" fill="#FF991F"/>
<path d="M54.2088 10.1752C51.0755 7.72634 47.8899 9.18244 46.1031 10.4444C45.9355 9.17648 45.8583 7.89797 45.8721 6.61882C45.8721 3.7022 46.1728 1.69454 46.6827 0.441406L44.1595 0.512007L41.6101 0.441406C41.919 1.37725 42.1136 2.34785 42.1897 3.33155C42.3138 4.20823 42.3692 5.09348 42.3553 5.97901C42.3553 9.06772 41.8933 10.3606 41.2309 10.3606C40.5685 10.3606 40.1153 9.06331 40.1153 5.97901C40.1019 5.06812 40.1617 4.15763 40.294 3.25654C40.3711 2.29824 40.5629 1.35295 40.8649 0.441406L38.3112 0.512007H38.2327L35.7051 0.441406C36.215 1.67689 36.5157 3.68455 36.5157 6.61882C36.5157 9.33688 36.2542 11.2651 35.8054 12.5182L38.5334 12.4432H48.2428C49.7942 12.4874 56.4967 12.1035 54.5095 14.57C53.298 16.0791 48.9793 14.9583 47.807 13.0301C46.6522 15.0863 47.5325 19.0001 51.7292 19.0001C56.3311 18.9825 57.7431 12.9374 54.2088 10.1752Z" fill="#FF991F"/>
<path d="M62.3361 0.449541C61.3643 0.449541 60.2312 0.449541 59.5993 0.449541H59.1025L56.2917 0.370117C56.7275 1.62325 57.002 3.55148 57.002 6.26954C57.002 9.18616 56.7013 11.1938 56.1914 12.447L58.7147 12.3808L61.264 12.447C60.8713 11.2088 60.6513 9.92115 60.6103 8.62137C62.14 10.179 66.5807 9.47738 66.5807 4.95022C66.5807 2.04684 64.7286 0.476017 62.3361 0.453955V0.449541ZM60.5624 7.61092C60.5624 7.32411 60.5624 7.03289 60.5624 6.72843V6.08422C60.5624 3.76769 60.9982 1.51294 62.1182 1.51294C63.9268 1.51294 62.676 6.60489 60.5711 7.61092" fill="#229821"/>
</svg>
