<svg width="24" height="24" viewBox="0 0 24 24" fill="none" xmlns="http://www.w3.org/2000/svg">
<path fill-rule="evenodd" clip-rule="evenodd" d="M9 20C8.44772 20 8 20.4477 8 21C8 21.5523 8.44772 22 9 22C9.55228 22 10 21.5523 10 21C10 20.4477 9.55228 20 9 20ZM12 21C12 22.6569 10.6569 24 9 24C7.34315 24 6 22.6569 6 21C6 19.3431 7.34315 18 9 18C10.6569 18 12 19.3431 12 21Z" fill="white"/>
<path fill-rule="evenodd" clip-rule="evenodd" d="M17 20C16.4477 20 16 20.4477 16 21C16 21.5523 16.4477 22 17 22C17.5523 22 18 21.5523 18 21C18 20.4477 17.5523 20 17 20ZM20 21C20 22.6569 18.6569 24 17 24C15.3431 24 14 22.6569 14 21C14 19.3431 15.3431 18 17 18C18.6569 18 20 19.3431 20 21Z" fill="white"/>
<path fill-rule="evenodd" clip-rule="evenodd" d="M0 2C0 1.44772 0.447714 1 0.999999 1H4.63636C5.10875 1 5.51671 1.33056 5.61464 1.79269L6.50622 6H21C21.3036 6 21.5908 6.13792 21.7805 6.37489C21.9703 6.61186 22.0422 6.92221 21.9758 7.21847L20.5241 13.7028C20.3952 14.3503 20.0492 14.9368 19.5393 15.3582C19.0274 15.7813 18.3833 16.0101 17.7185 15.9997H8.89964C8.23487 16.0101 7.59081 15.7813 7.0789 15.3582C6.56732 14.9354 6.22082 14.3465 6.09281 13.6966L3.82607 3H1C0.447715 3 0 2.55228 0 2ZM6.93005 8L8.051 13.2897L8.05452 13.3071C8.09431 13.5127 8.2023 13.692 8.353 13.8166C8.50308 13.9406 8.68661 14.0035 8.87124 13.9999L8.89091 13.9997H17.7273L17.7469 13.9999C17.9316 14.0035 18.1151 13.9406 18.2652 13.8166C18.4159 13.692 18.5239 13.5127 18.5637 13.3071C18.5655 13.2975 18.5675 13.288 18.5696 13.2786L19.7514 8H6.93005Z" fill="white"/>
</svg>
