<svg width="24" height="24" viewBox="0 0 24 24" fill="none" xmlns="http://www.w3.org/2000/svg">
<path d="M6.16894 7.00146C3.37826 9.0702 2 12 2 12C2 12 5.29299 19 12.0051 19C13.9231 19 15.5611 18.4284 16.9225 17.612M10.3333 5.14928C10.8649 5.05282 11.4221 5 12.0051 5C18.7173 5 22 12 22 12C22 12 21.405 13.2688 20.2037 14.726" stroke="#D8D8D8" stroke-width="2" stroke-linecap="round" stroke-linejoin="round"/>
<path d="M9.85207 9.90527C9.32484 10.4459 9 11.1848 9 11.9996C9 13.6565 10.3431 14.9996 12 14.9996C12.7684 14.9996 13.4692 14.7108 14 14.2358" stroke="#D8D8D8" stroke-width="2" stroke-linecap="round" stroke-linejoin="round"/>
<path d="M4 4L20 20" stroke="#D8D8D8" stroke-width="2" stroke-linecap="round" stroke-linejoin="round"/>
</svg>
