<svg width="180" height="40" viewBox="0 0 180 40" fill="none" xmlns="http://www.w3.org/2000/svg">
<path d="M150.069 3.75745H147.176V5.18912C146.923 10.5277 145.249 12.5544 143.489 14.6761C143.053 15.2022 142.617 15.7541 142.155 16.401V14.8227C142.155 9.64798 142.696 6.0257 143.576 3.61084L138.608 3.74021L133.64 3.61084C134.511 6.06019 135.061 9.8291 135.061 15.1418C135.061 20.8426 134.459 24.7667 133.439 27.2161L139.227 27.0695H142.155V25.0686C142.24 21.8901 143.509 18.855 145.72 16.5476C146.199 15.9697 146.696 15.366 147.176 14.6933V16.0387C147.176 21.2134 146.635 24.8271 145.755 27.2506L150.723 27.1298L155.7 27.2506C154.828 24.8098 154.27 21.0409 154.27 15.7282C154.27 10.0275 154.872 6.10332 155.9 3.65396L150.069 3.75745Z" fill="#009B3D"/>
<path d="M168.233 2.86182C161.54 2.86182 156.362 8.35562 156.362 15.6864C156.362 23.0173 160.616 27.5969 168.103 27.5969C174.796 27.5969 180 22.241 180 14.9447C180 7.64841 175.799 2.86182 168.233 2.86182ZM171.633 15.902C170.203 20.3868 167.71 24.6818 165.314 24.6818C163.771 24.6818 163.509 22.2755 163.509 21.37C163.58 19.0545 163.982 16.7606 164.703 14.5566C166.133 10.0719 168.625 5.7769 171.014 5.7769C172.565 5.7769 172.818 8.18313 172.818 9.0887C172.745 11.4033 172.346 13.6966 171.633 15.902Z" fill="#009B3D"/>
<path d="M68.8638 25.4222C68.2016 22.2196 67.9092 18.953 67.9922 15.6851C67.9922 9.98434 68.5849 6.06019 69.6133 3.61084L64.5668 3.74883L59.4681 3.61084C60.0858 5.44003 60.4751 7.33714 60.6272 9.25988C60.8756 10.9734 60.9863 12.7037 60.9584 14.4346C60.9584 20.4717 60.0346 22.9987 58.7098 22.9987C57.385 22.9987 56.4785 20.4631 56.4785 14.4346C56.454 12.6545 56.5706 10.8753 56.8271 9.11326C56.9871 7.24023 57.3734 5.39292 57.9777 3.61084L52.8702 3.74883H52.7133L47.6494 3.61084C48.6779 6.0257 49.2793 9.94984 49.2793 15.6851C49.2793 20.9978 48.7563 24.7667 47.8586 27.2074L53.3147 27.0608H56.8795C57.0538 27.0608 71.7575 26.1984 68.1055 30.2864C65.6999 32.9772 59.0061 31.6146 56.9666 27.5869C54.0817 31.3817 55.3804 39.8509 64.1834 39.8509C73.152 39.8509 73.7708 26.9142 68.8812 25.4222" fill="#FF991F"/>
<path d="M99.9271 17.9374H110.569L110.735 13.3319C108.248 14.5303 105.658 15.5059 102.995 16.247V11.4691H103.204C105.401 11.4691 107.832 13.6769 107.832 13.6769V10.5204V7.80364C107.771 7.90714 105.444 9.97701 103.405 9.97701H102.995V5.35429C105.658 6.09544 108.248 7.07102 110.735 8.26937L110.569 3.75014H99.9096L95.1594 3.62939C96.031 5.12143 96.1618 8.39011 96.1618 10.9343C96.1618 13.4786 95.9787 16.5489 94.959 18.0237L99.9271 17.9374Z" fill="#FF991F"/>
<path d="M40.0397 3.75663H37.0764C37.0764 10.1991 35.3331 12.3811 33.4418 14.6925C32.9886 15.2617 32.5702 15.8309 32.0908 16.4174V14.7529C32.0908 9.57816 32.6312 5.95587 33.5115 3.54102L28.5435 3.67038L23.5668 3.54102C24.4384 5.99037 24.9961 9.75927 24.9961 15.072C24.9961 20.7727 24.3947 24.6969 23.3662 27.1462L29.1623 26.9996H32.1257C32.1257 20.859 33.7729 18.8236 35.673 16.4605C36.1349 15.8913 36.6144 15.2962 37.0764 14.6321V15.9689C37.0764 21.1436 36.536 24.7573 35.6469 27.1807L40.6237 27.06L45.5917 27.1807C44.7201 24.74 44.171 20.9711 44.171 15.6584C44.171 9.95764 44.7637 6.0335 45.7922 3.58414L40.0397 3.75663Z" fill="#FF991F"/>
<path d="M21.9639 27.1471C20.9879 24.4439 20.4696 21.5998 20.4299 18.7296V11.5109C20.4912 8.83087 20.9403 6.17339 21.7635 3.61947L16.2986 3.76608H5.7699L0.200448 3.61084C1.07203 6.06019 1.62986 9.8291 1.62986 15.1418C1.62986 20.8426 1.02847 24.7667 0 27.2161L5.05514 27.0867L10.1453 27.2161C9.53072 25.389 9.14143 23.4951 8.986 21.5757C8.7421 19.8617 8.63137 18.1317 8.65479 16.401C8.65479 10.3638 9.57874 7.83684 10.9036 7.83684C12.2284 7.83684 13.1348 10.3724 13.1348 16.401C13.1593 18.181 13.0428 19.9602 12.7862 21.7223C12.6264 23.5925 12.24 25.437 11.6357 27.2161L16.7431 27.0867H16.9001L21.9639 27.1471Z" fill="#FF991F"/>
<path d="M108.417 22.7512C102.15 17.9646 95.7788 20.8107 92.2053 23.2773C91.87 20.799 91.7156 18.3001 91.7434 15.7999C91.7434 10.0991 92.3447 6.17494 93.3645 3.72559L88.318 3.86358L83.2192 3.72559C83.837 5.55478 84.2262 7.45189 84.3784 9.37463C84.6267 11.0882 84.7375 12.8185 84.7096 14.5493C84.7096 20.5865 83.7858 23.1134 82.4609 23.1134C81.1361 23.1134 80.2296 20.5778 80.2296 14.5493C80.2029 12.7689 80.3224 10.9893 80.587 9.22801C80.7413 7.35493 81.1248 5.50729 81.7288 3.72559L76.6214 3.86358H76.4644L71.4092 3.72559C72.4289 6.14044 73.0304 10.0646 73.0304 15.7999C73.0304 21.1126 72.5075 24.8815 71.6097 27.3308L77.0659 27.1842H96.4847C99.5876 27.2704 112.993 26.5201 109.018 31.3412C106.595 34.2908 97.9577 32.1002 95.6131 28.3313C93.3034 32.3503 95.064 40.0002 103.457 40.0002C112.661 39.9657 115.485 28.1501 108.417 22.7512Z" fill="#FF991F"/>
<path d="M124.672 0.155241C122.729 0.155241 120.462 0.155241 119.199 0.155241H118.205L112.583 0C113.455 2.44935 114.004 6.21826 114.004 11.5309C114.004 17.2317 113.403 21.1559 112.383 23.6052L117.429 23.4759L122.528 23.6052C121.743 21.1851 121.303 18.6683 121.221 16.1278C124.28 19.1722 133.162 17.8009 133.162 8.95222C133.162 3.2773 129.457 0.20699 124.672 0.163867V0.155241ZM121.125 14.1528C121.125 13.5922 121.125 13.023 121.125 12.4279V11.1687C121.125 6.64085 121.996 2.23374 124.236 2.23374C127.854 2.23374 125.352 12.1864 121.142 14.1528" fill="#009B3D"/>
</svg>
