<svg width="24" height="24" viewBox="0 0 24 24" fill="none" xmlns="http://www.w3.org/2000/svg">
<path fill-rule="evenodd" clip-rule="evenodd" d="M3.59818 15.6727C4.62659 14.6062 6.02933 14 7.5 14H16.5C17.9707 14 19.3734 14.6062 20.4018 15.6727C21.429 16.738 22 18.1753 22 19.6667V22C22 22.5523 21.5523 23 21 23H3C2.44772 23 2 22.5523 2 22V19.6667C2 18.1753 2.57095 16.738 3.59818 15.6727ZM7.5 16C6.58372 16 5.69728 16.3771 5.03786 17.061C4.37726 17.746 4 18.6827 4 19.6667V21H20V19.6667C20 18.6827 19.6227 17.746 18.9621 17.061C18.3027 16.3771 17.4163 16 16.5 16H7.5Z" fill="#333333"/>
<path fill-rule="evenodd" clip-rule="evenodd" d="M12 3C9.79086 3 8 4.79086 8 7C8 9.20914 9.79086 11 12 11C14.2091 11 16 9.20914 16 7C16 4.79086 14.2091 3 12 3ZM6 7C6 3.68629 8.68629 1 12 1C15.3137 1 18 3.68629 18 7C18 10.3137 15.3137 13 12 13C8.68629 13 6 10.3137 6 7Z" fill="#333333"/>
</svg>
