<svg width="100" height="21" viewBox="0 0 100 21" fill="none" xmlns="http://www.w3.org/2000/svg">
<path d="M83.3716 0.507223H81.764V1.3168C81.6236 4.33562 80.6939 5.4817 79.7158 6.68142C79.4737 6.97891 79.2316 7.29104 78.975 7.65681V6.76433C78.975 3.83817 79.2752 1.78986 79.7642 0.424316L77.0042 0.497471L74.2442 0.424316C74.7284 1.80936 75.0334 3.94059 75.0334 6.94478C75.0334 10.1684 74.6993 12.3874 74.1328 13.7725L77.348 13.6896H78.975V12.5581C79.0218 10.7608 79.7272 9.0445 80.9554 7.73971C81.2217 7.41296 81.4977 7.07157 81.764 6.69117V7.45198C81.764 10.3781 81.4638 12.4216 80.9748 13.792L83.7348 13.7237L86.4997 13.792C86.0155 12.4118 85.7056 10.2806 85.7056 7.27641C85.7056 4.05275 86.0397 1.83375 86.611 0.448703L83.3716 0.507223Z" fill="#229821"/>
<path d="M93.4622 0C89.7434 0 86.8672 3.10661 86.8672 7.252C86.8672 11.3974 89.2301 13.987 93.3895 13.987C97.1083 13.987 99.9991 10.9585 99.9991 6.83258C99.9991 2.7067 97.6652 0 93.4622 0ZM95.3506 7.37392C94.5565 9.90993 93.1717 12.3386 91.8401 12.3386C90.983 12.3386 90.8377 10.978 90.8377 10.4659C90.8773 9.15655 91.1006 7.85943 91.5011 6.61312C92.2952 4.07712 93.6801 1.64841 95.0068 1.64841C95.8687 1.64841 96.0092 3.00907 96.0092 3.52114C95.9687 4.83 95.747 6.12677 95.3506 7.37392Z" fill="#229821"/>
<path d="M38.2584 12.7581C37.8905 10.9471 37.7281 9.09992 37.7742 7.25202C37.7742 4.02837 38.1035 1.80937 38.6748 0.424316L35.8712 0.502349L33.0386 0.424316C33.3818 1.45868 33.598 2.53145 33.6826 3.61871C33.8205 4.58767 33.8821 5.56612 33.8666 6.54487C33.8666 9.95872 33.3533 11.3877 32.6173 11.3877C31.8813 11.3877 31.3777 9.95384 31.3777 6.54487C31.3641 5.53829 31.4288 4.53218 31.5714 3.5358C31.6603 2.47664 31.8749 1.43204 32.2106 0.424316L29.3731 0.502349H29.2859L26.4727 0.424316C27.044 1.78986 27.3781 4.00886 27.3781 7.25202C27.3781 10.2562 27.0876 12.3874 26.5889 13.7676L29.6201 13.6847H31.6005C31.6973 13.6847 39.866 13.197 37.8372 15.5087C36.5007 17.0303 32.7819 16.2597 31.6489 13.9822C30.0461 16.128 30.7676 20.9172 35.6582 20.9172C40.6408 20.9172 40.9846 13.6018 38.2681 12.7581" fill="#FF991F"/>
<path d="M55.514 8.52491H61.4262L61.5182 5.92063C60.1366 6.59826 58.6977 7.14993 57.2184 7.56903V4.86721H57.3346C58.5548 4.86721 59.9058 6.1157 59.9058 6.1157V4.33075V2.79452C59.8719 2.85304 58.579 4.0235 57.446 4.0235H57.2184V1.40947C58.6977 1.82857 60.1366 2.38024 61.5182 3.05787L61.4262 0.502359H55.5043L52.8653 0.434082C53.3495 1.27779 53.4221 3.12615 53.4221 4.56484C53.4221 6.00354 53.3204 7.73972 52.7539 8.57368L55.514 8.52491Z" fill="#FF991F"/>
<path d="M22.2474 0.507177H20.6011C20.6011 4.15024 19.6327 5.38411 18.5819 6.69113C18.3301 7.013 18.0977 7.33488 17.8314 7.66651V6.72527C17.8314 3.79911 18.1316 1.75079 18.6206 0.385254L15.8606 0.458409L13.0958 0.385254C13.58 1.7703 13.8899 3.90152 13.8899 6.90571C13.8899 10.1294 13.5557 12.3484 12.9844 13.7334L16.2044 13.6505H17.8508C17.8508 10.1781 18.7659 9.02718 19.8215 7.6909C20.0781 7.36902 20.3445 7.03251 20.6011 6.65699V7.41291C20.6011 10.3391 20.3009 12.3825 19.807 13.7529L22.5719 13.6846L25.3319 13.7529C24.8476 12.3728 24.5426 10.2415 24.5426 7.23734C24.5426 4.01369 24.8719 1.79469 25.4433 0.40964L22.2474 0.507177Z" fill="#FF991F"/>
<path d="M12.2022 13.7335C11.66 12.2049 11.372 10.5966 11.35 8.97358V4.89159C11.384 3.37611 11.6335 1.87337 12.0908 0.429194L9.05479 0.512101H3.2055L0.11136 0.424316C0.595575 1.80937 0.905479 3.94059 0.905479 6.94478C0.905479 10.1684 0.571373 12.3874 0 13.7725L2.80841 13.6993L5.63627 13.7725C5.29485 12.7393 5.07857 11.6684 4.99222 10.583C4.85672 9.61375 4.79521 8.6355 4.80822 7.65681C4.80822 4.24295 5.32153 2.81401 6.05753 2.81401C6.79354 2.81401 7.29709 4.24783 7.29709 7.65681C7.31071 8.66339 7.246 9.66949 7.10345 10.6659C7.01465 11.7234 6.80003 12.7665 6.46426 13.7725L9.30175 13.6993H9.38893L12.2022 13.7335Z" fill="#FF991F"/>
<path d="M60.2317 11.2463C56.7502 8.53961 53.2106 10.149 51.2253 11.5438C51.039 10.1424 50.9532 8.72931 50.9686 7.3155C50.9686 4.09185 51.3027 1.87284 51.8693 0.487793L49.0657 0.565826L46.233 0.487793C46.5762 1.52216 46.7925 2.59492 46.877 3.68218C47.015 4.65115 47.0765 5.62959 47.061 6.60834C47.061 10.0222 46.5478 11.4511 45.8117 11.4511C45.0757 11.4511 44.5721 10.0173 44.5721 6.60834C44.5573 5.60156 44.6237 4.59523 44.7707 3.59928C44.8564 2.5401 45.0694 1.4953 45.405 0.487793L42.5675 0.565826H42.4803L39.6719 0.487793C40.2384 1.85333 40.5726 4.07234 40.5726 7.3155C40.5726 10.3197 40.282 12.4509 39.7833 13.836L42.8145 13.753H53.6027C55.3265 13.8018 62.7738 13.3775 60.5658 16.1037C59.2196 17.7716 54.4211 16.5329 53.1185 14.4017C51.8354 16.6743 52.8135 21.0002 57.4765 21.0002C62.5898 20.9807 64.1587 14.2993 60.2317 11.2463Z" fill="#FF991F"/>
<path d="M69.2611 0.497453C68.1813 0.497453 66.9223 0.497453 66.2202 0.497453H65.6682L62.545 0.409668C63.0292 1.79472 63.3342 3.92594 63.3342 6.93013C63.3342 10.1538 63.0001 12.3728 62.4336 13.7578L65.2372 13.6847L68.0699 13.7578C67.6335 12.3893 67.3891 10.9661 67.3435 9.52953C69.0431 11.2511 73.9773 10.4757 73.9773 5.47192C73.9773 2.2629 71.9194 0.526716 69.2611 0.502331V0.497453ZM67.2903 8.41271C67.2903 8.09571 67.2903 7.77383 67.2903 7.43733V6.72529C67.2903 4.1649 67.7745 1.67279 69.019 1.67279C71.0285 1.67279 69.6387 7.30077 67.3 8.41271" fill="#229821"/>
</svg>
