<svg width="480" height="582" viewBox="0 0 480 582" fill="none" xmlns="http://www.w3.org/2000/svg">
<g clip-path="url(#clip0_657_62333)">
<path d="M35.992 89.5664C25.5829 93.937 10.1172 96.906 -11.038 98.0297H-51.5445C-70.7835 97.0006 -85.3029 94.4338 -95.5936 90.6724L-94.7775 120.835V126.235V179.043L-95.6055 209.797C-81.9614 204.811 -60.9008 201.925 -31.241 201.925C0.589371 201.925 22.5016 205.243 35.9801 210.909L35.2172 182.999L35.9801 154.859C28.0551 157.752 17.6461 159.934 4.46326 161.259C-2.82898 162.441 -12.3746 163.092 -24.4278 163.092C-58.1389 163.092 -72.2738 157.958 -72.2738 150.672C-72.2738 143.386 -58.1152 138.353 -24.4278 138.353C-11.931 138.353 -2.13111 139.045 5.26167 140.281C18.0423 141.618 28.2147 143.77 35.9801 146.603L35.2172 118.41V117.535L35.992 89.5664Z" fill="#FAFAFA"/>
<path d="M136.986 80.2646C134.241 68.7614 132.698 53.1951 132.698 33.0395C132.698 5.39636 135.584 -13.6297 140.499 -25.3339L116.25 -24.6715L91.8128 -25.3339C94.3264 -18.4498 96.2189 -9.3655 97.3663 2.03121C98.3895 8.37126 98.9631 16.6511 98.9631 27.1252C98.9631 56.3711 94.5038 68.6667 88.1637 68.6667C81.8237 68.6667 77.4708 56.3711 77.4708 27.1252C77.4708 16.2726 78.0622 7.76207 79.1445 1.34514C80.3274 -9.75586 82.1726 -18.5917 84.6329 -25.3339L60.154 -24.6715H59.3911L35.125 -25.3398C40.0456 -13.6356 42.9258 5.4141 42.9258 33.0335C42.9258 58.7841 40.4182 77.0709 36.089 88.923L62.3068 88.2133H66.9731H79.393C80.2683 88.1719 150.801 84.0733 133.283 103.833C121.721 116.88 89.6127 110.267 79.8128 90.7505C66.0031 109.144 72.2367 150.248 114.441 150.248C157.496 150.248 160.483 87.4858 137.003 80.2705" fill="#FAFAFA"/>
<path d="M-112.064 43.2055C-112.253 36.3627 -112.36 29.2538 -112.395 21.9143V6.33032C-112.395 -49.707 -101.401 -104.212 -74.2484 -104.212C-29.9982 -104.212 -60.6457 18.8744 -112.099 43.1937L-112.064 43.2055ZM-68.7363 -129.72C-92.5765 -129.916 -120.273 -129.525 -135.691 -129.354H-147.804L-216.639 -131.217C-205.609 -100.995 -199.216 -54.3318 -199.216 11.316C-199.216 81.8018 -206.561 130.31 -219.105 160.159L-157.308 158.474L-94.9955 160.159C-102.98 138.277 -108.521 107.753 -110.964 67.6845C-73.5032 105.311 35.2062 88.331 35.2062 -21.0999C35.2062 -91.2307 -10.0968 -129.224 -68.6831 -129.72" fill="#FAFAFA"/>
<path d="M168.613 89.0157H212.839L213.508 69.3805C213.508 69.3805 197.539 77.5007 181.405 81.8003V61.3785H182.269C191.365 61.3785 201.478 70.8413 201.478 70.8413L201.312 57.3509L201.478 45.7591C201.23 46.1908 191.56 55.0325 183.085 55.0325H181.405V35.3145C197.521 39.6378 213.508 47.7344 213.508 47.7344L212.839 28.4481H181.405H168.613L148.889 27.9336C152.632 34.3032 153.029 48.2548 153.029 59.0838C153.029 69.9127 152.284 83.0541 148.031 89.341L168.613 89.0157Z" fill="#FAFAFA"/>
<path d="M576.483 4.70936H429.491L427.273 69.9728C427.273 69.9728 480.407 42.998 533.978 28.6265V96.4922H531.092C500.864 96.4922 467.248 65.0877 467.248 65.0877L467.792 109.923L467.248 148.466C468.076 147.023 500.214 117.647 528.383 117.647H533.978V183.195C480.407 168.823 427.273 141.848 427.273 141.848L429.491 205.935H533.978V206H576.483L642.055 207.703C629.635 186.542 628.215 140.157 628.215 104.163C628.215 68.169 630.693 24.5101 644.822 3.62109L576.483 4.70936Z" fill="#FAFAFA"/>
<path d="M374.807 167.652C339.252 139.51 302.951 170.095 294 178.677V187.456H295.946H323.105C336.537 187.816 394.638 184.456 377.421 206.135C366.909 219.376 329.481 209.517 319.325 192.591C309.299 210.632 316.932 245 353.148 245C393.207 244.965 405.473 191.889 374.807 167.652Z" fill="#FAFAFA"/>
<path d="M306.32 177.813C304.123 167.353 302.897 153.622 302.897 136.148C302.897 110.503 305.521 92.8551 310 82L287.931 82.5811L265.68 82C267.962 88.3922 269.674 96.7892 270.741 107.383C271.676 113.264 272.196 120.946 272.196 130.662C272.196 157.794 268.133 169.201 262.365 169.201C256.597 169.201 252.62 157.794 252.62 130.662C252.62 120.591 253.162 112.7 254.144 106.744C255.199 96.4464 256.905 88.2527 259.147 82L236.845 82.5811H236.114L214 82C218.479 92.8551 221.103 110.474 221.103 136.148C221.103 160.037 218.821 177.005 214.879 188L238.756 187.343H243.007H295.656H306.297L306.32 177.813Z" fill="#FAFAFA"/>
<path d="M340.897 4.54015C335.921 4.67438 330.745 4.75019 325.416 4.77354H314.079C273.306 4.77354 233.647 -3.18076 233.647 -22.8302C233.647 -54.8459 323.204 -32.6812 340.897 4.55761V4.54015ZM215.086 -26.822C214.945 -9.57111 215.227 10.4694 215.356 21.6159V30.4107L214 80.22C235.983 72.2365 269.919 67.6087 317.705 67.6087C368.989 67.6087 404.287 72.9252 426 82L424.779 37.2854L426 -7.80278C410.085 -2.02525 387.856 1.98399 358.719 3.76393C386.095 -23.338 373.736 -102 294.121 -102C243.066 -102 215.449 -69.2197 215.086 -26.8278" fill="#FAFAFA"/>
<path d="M412.266 86.1119C395.34 69.1994 370.455 69.9459 351.709 88.6838C332.963 107.422 332.315 132.516 348.738 148.968C365.663 165.881 390.759 164.936 409.377 146.309C427.994 127.682 428.689 102.57 412.295 86.1119H412.266ZM349.123 134.482C345.213 130.58 350.722 123.763 353.039 121.453C357.959 116.537 365.4 111.341 373.466 107.078C388.524 99.2395 405.822 94.5565 411.869 100.598C415.773 104.506 410.264 111.323 407.947 113.633C403.033 118.549 395.586 123.739 387.52 128.002C372.462 135.846 355.164 140.523 349.123 134.482Z" fill="#FAFAFA"/>
<path d="M164.602 412.154C162.649 403.957 161.549 392.885 161.549 378.534C161.549 358.86 163.601 345.318 167.109 337L149.835 337.47L132.419 337C134.213 341.918 135.559 348.351 136.38 356.483C137.108 360.991 137.518 366.866 137.518 374.342C137.518 395.164 134.339 403.918 129.82 403.918C125.3 403.918 122.198 395.174 122.198 374.342C122.198 366.62 122.624 360.559 123.39 355.991C124.217 348.088 125.579 341.782 127.303 337L109.854 337.475H109.307L92 337C95.5073 345.334 97.5592 358.86 97.5592 378.534C97.5592 396.869 95.7754 409.886 92.6894 418.324L111.375 417.821H114.702H123.527C124.151 417.788 174.413 414.859 161.932 428.937C153.692 438.227 130.815 433.522 123.828 419.647C113.979 432.762 118.428 462 148.505 462C179.195 462 181.335 417.324 164.586 412.187" fill="#FAFAFA"/>
<path d="M136.803 535.458C132.952 535.565 128.954 535.624 124.832 535.641H116.062C84.5269 535.641 53.8616 529.461 53.8616 514.179C53.8616 489.28 123.117 506.52 136.803 535.47V535.458ZM39.5078 511.038C39.3954 524.452 39.6143 540.018 39.7148 548.712V555.549L38.668 594.287C55.6654 588.077 81.9128 584.481 118.865 584.481C158.526 584.481 185.82 588.621 202.616 595.671L201.67 560.901L202.616 525.836C190.309 530.33 173.128 533.447 150.571 534.831C171.744 513.753 162.187 452.582 100.614 452.582C61.1538 452.582 39.7739 478.072 39.496 511.038" fill="#FAFAFA"/>
<path d="M111.949 251.485H184.899L186 219.191C186 219.191 159.628 232.542 133.008 239.65V206.052H134.44C149.443 206.052 166.097 221.592 166.097 221.592L165.822 199.404L166.097 180.331C165.684 181.017 149.732 195.582 135.747 195.582H132.994V163.13C159.587 170.238 185.986 183.59 185.986 183.59L184.885 151.878H133.022V151.844H111.922L79.3764 151C85.5703 161.477 86.2585 184.427 86.2585 202.238C86.2585 220.049 85.0266 241.654 78 252L111.949 251.485Z" fill="#FAFAFA"/>
<path d="M-78.0444 596.646H33.977L35.6685 546.907C35.6685 546.907 -4.82624 567.471 -45.6521 578.418V526.704H-43.4521C-20.3866 526.704 5.20428 550.639 5.20428 550.639L4.78439 516.467L5.20428 487.097C4.57146 488.197 -19.9194 510.582 -41.388 510.582H-45.6521V460.607C-4.82624 471.554 35.6625 492.112 35.6625 492.112L33.9711 443.272H-45.6521V443.219H-78.0444L-128.014 441.918C-118.551 458.052 -117.469 493.372 -117.469 520.826C-117.469 548.279 -119.355 581.529 -130.125 597.462L-78.0444 596.646Z" fill="#FAFAFA"/>
<path d="M-14.9207 204C-78.6133 203.933 -124 252.255 -124 322.841C-124 393.427 -77.9547 441.927 -16.0671 442C47.6011 442.067 93 393.037 93 322.841C93 252.646 46.973 204.079 -14.8963 204.006L-14.9207 204ZM-42.6357 413.952C-57.3316 413.952 -59.7952 390.737 -59.7952 382.03C-59.7952 363.513 -55.5693 339.711 -48.447 316.527C-34.8852 273.415 -11.1522 232.042 11.593 232.042C26.289 232.042 28.7585 255.257 28.7585 263.958C28.7585 282.481 24.5266 306.282 17.4104 329.467C3.84863 372.579 -19.8844 413.952 -42.6296 413.952" fill="#FAFAFA"/>
<path d="M546.246 353.832C530.098 357.316 508.815 359.252 481.787 359.252C442.122 359.252 414.82 355.093 398 348L398.946 382.948L398 418.199C407.866 414.573 420.879 411.84 437.271 410.178C446.391 408.7 458.253 407.887 473.277 407.887C515.256 407.887 532.903 414.315 532.903 423.459C532.903 432.602 515.233 438.893 473.277 438.893C457.705 438.893 445.491 438.028 436.28 436.475C420.32 434.808 407.673 432.11 398 428.558L398.946 463.872V464.972L398 500C414.797 492.907 442.099 488.748 481.787 488.748C518.75 488.748 544.998 492.363 562 498.608L560.985 460.795V454.064V370.682H560.934L560.906 353.832H546.246Z" fill="#FAFAFA"/>
<path d="M426.59 564.815C432.102 562.496 440.293 560.929 451.495 560.332H472.951C483.142 560.876 490.83 562.236 496.283 564.229L495.851 548.261V545.41V517.442L496.295 501.154C489.068 503.792 477.913 505.294 462.199 505.294C445.344 505.294 433.74 503.52 426.602 500.562L427.004 515.348L426.602 530.252C430.795 528.72 436.325 527.567 443.292 526.863C448.361 526.145 453.478 525.821 458.598 525.893C476.435 525.893 483.934 528.608 483.934 532.476C483.934 536.344 476.435 538.981 458.598 538.981C453.337 539.062 448.078 538.72 442.872 537.958C436.1 537.254 430.712 536.113 426.602 534.611L427.004 549.55V550.029L426.59 564.815Z" fill="#FAFAFA"/>
<path d="M190 319.545C199.806 315.405 214.373 312.631 234.298 311.566H272.462C290.583 312.542 304.263 314.955 313.956 318.498L313.187 290.062V284.994V235.249L313.968 206.269C301.116 210.965 281.274 213.686 253.335 213.686C223.35 213.686 202.71 210.557 190.012 205.223L190.733 231.517L190.018 258.031C197.482 255.304 207.317 253.252 219.701 252.004C226.579 250.892 235.563 250.271 246.907 250.271C278.636 250.271 291.979 255.109 291.979 261.981C291.979 268.854 278.636 273.591 246.907 273.591C235.131 273.591 225.899 272.941 218.938 271.77C206.897 270.516 197.31 268.487 190 265.814L190.716 292.381V293.203L190 319.545Z" fill="#FAFAFA"/>
<path d="M541.533 567.084H520.839C520.839 612.458 508.497 627.829 495.432 644.152C492.248 648.125 489.04 652.127 485.97 656.498V644.784C486.131 608.664 489.751 582.848 495.916 566.024L461.16 566.923L426.392 566C432.694 583.217 436.35 609.784 436.35 647.201C436.35 687.359 432.169 714.997 425 732L465.497 730.94H486.406C486.406 687.656 497.905 673.316 511.221 656.706C514.465 652.657 517.793 648.47 521.042 643.789V653.24C520.887 689.36 517.267 715.176 511.096 732L545.852 731.095L580.608 732C574.3 714.783 570.65 688.216 570.65 650.799C570.65 610.641 574.831 583.009 582 566L541.533 567.084Z" fill="#FAFAFA"/>
<path d="M419.967 607.104C417.353 596.139 415.886 581.294 415.886 562.073C415.886 535.719 418.63 517.58 423.32 506.42L400.213 507.053L376.917 506.42C379.283 512.979 381.116 521.625 382.211 532.513C383.186 538.552 383.737 546.453 383.737 556.437C383.737 584.322 379.484 596.062 373.44 596.062C367.395 596.062 363.238 584.334 363.238 556.437C363.238 546.087 363.829 537.972 364.841 531.857C365.941 521.271 367.727 512.849 370.075 506.426L346.731 507.059H346.004L322.855 506.426C327.54 517.586 330.29 535.725 330.29 562.079C330.29 586.635 327.924 604.07 323.784 615.372L348.777 614.698H353.231H365.059C365.893 614.662 433.144 610.735 416.436 629.59C405.418 642.009 374.806 635.729 365.462 617.122C352.291 634.652 358.24 673.846 398.475 673.846C439.525 673.846 442.376 614.006 419.985 607.127" fill="#FAFAFA"/>
<path d="M389.146 374.757C387.774 369.003 386.999 361.22 386.999 351.136C386.999 337.309 388.442 327.793 390.903 321.938L378.778 322.269L366.56 321.938C367.814 325.38 368.76 329.916 369.339 335.623C369.926 339.782 370.191 343.979 370.132 348.179C370.132 362.805 367.902 368.956 364.732 368.956C361.562 368.956 359.409 362.805 359.409 348.179C359.342 343.864 359.621 339.55 360.243 335.28C360.835 329.727 361.757 325.309 362.993 321.938L350.745 322.269H350.367L338.219 321.938C340.679 327.793 342.122 337.314 342.122 351.136C342.122 364.017 340.868 373.167 338.704 379.093L351.816 378.738H360.356C360.787 378.738 396.072 376.656 387.307 386.544C381.523 393.05 365.466 389.768 360.563 380.003C353.655 389.206 356.772 409.764 377.885 409.764C399.419 409.764 400.91 378.371 389.17 374.763" fill="#FAFAFA"/>
<path d="M130.332 288.087C132.518 288.025 134.782 287.99 137.124 287.983L142.098 287.983C159.986 287.983 177.382 291.486 177.382 300.134C177.382 314.23 138.089 304.472 130.337 288.079L130.332 288.087ZM185.527 301.892C185.591 294.297 185.465 285.475 185.412 280.564L185.412 276.694L186 254.784C176.356 258.298 161.47 260.336 140.508 260.336C118.009 260.336 102.527 257.993 93 254L93.5346 273.682L93 293.532C99.9819 290.989 109.725 289.223 122.516 288.442C110.506 300.371 115.927 335 150.85 335C173.231 335 185.361 320.571 185.516 301.908" fill="#FAFAFA"/>
<path d="M307.35 425.092C302.151 425.24 296.751 425.323 291.186 425.347H279.358C236.775 425.347 195.376 416.996 195.376 396.367C195.376 362.745 288.891 386.017 307.368 425.116L307.35 425.092ZM175.989 392.162C175.835 410.271 176.137 431.32 176.267 443.024V452.251L174.871 504.532C197.824 496.152 233.262 491.29 283.161 491.29C336.714 491.29 373.571 496.873 396.247 506.401L394.969 459.454L396.247 412.105C379.628 418.173 356.432 422.384 325.985 424.253C354.575 395.793 341.67 313.195 258.563 313.195C205.276 313.195 176.409 347.616 176.036 392.132" fill="#FAFAFA"/>
<path d="M429.695 321.452H510.778L511.998 285.45C511.998 285.45 482.706 300.332 453.144 308.26V270.826H454.733C471.409 270.826 489.949 288.145 489.949 288.145L489.649 263.417L489.949 242.157C489.492 242.953 471.765 259.157 456.227 259.157C455.205 259.157 454.177 259.157 453.144 259.157V222.985C482.69 230.909 511.998 245.791 511.998 245.791L510.778 210.442H453.144V210.402H429.695L393.527 209.463C400.377 221.138 401.16 246.721 401.16 266.575C401.16 286.429 399.793 310.514 392 322.033L429.695 321.452Z" fill="#FAFAFA"/>
<path d="M266.495 491.961C229.892 491.925 203.805 519.687 203.805 560.241C203.805 600.795 230.241 628.662 265.821 628.698C302.418 628.739 328.512 600.57 328.512 560.241C328.512 519.912 302.052 492.002 266.49 491.961H266.495ZM250.568 612.611C242.123 612.611 240.703 599.275 240.703 594.277C240.703 583.631 243.134 569.964 247.209 556.645C255.022 531.841 268.684 508.083 281.742 508.083C290.188 508.083 291.607 521.426 291.607 526.417C291.607 537.063 289.171 550.731 285.102 564.055C277.307 588.824 263.663 612.593 250.586 612.593" fill="#FAFAFA"/>
<path d="M316 282.807C315.978 303.931 331.815 319 354.947 319C378.079 319 393.976 303.723 394 283.189C394.022 262.065 377.953 247 354.947 247C331.941 247 316.024 262.289 316 282.807ZM384.81 291.994C384.81 296.87 377.201 297.69 374.348 297.69C368.279 297.69 360.478 296.285 352.879 293.924C338.75 289.425 325.19 281.55 325.19 274.004C325.19 269.128 332.799 268.308 335.65 268.308C341.721 268.308 349.522 269.715 357.121 272.076C371.25 276.575 384.81 284.45 384.81 291.996" fill="#FAFAFA"/>
</g>
<defs>
<clipPath id="clip0_657_62333">
<rect width="480" height="582" rx="10" fill="white"/>
</clipPath>
</defs>
</svg>
