<svg width="248" height="96" viewBox="0 0 248 96" fill="none" xmlns="http://www.w3.org/2000/svg">
<rect width="248" height="96" rx="48" fill="white"/>
<path d="M175.682 69.6472C174.263 66.2514 173.27 61.1578 172.915 54.1541V40.8542C173.27 34.5579 174.121 29.7473 175.327 26.3516L165.397 26.6345H163.624H146.175L136.032 26.3516C137.664 30.8085 138.657 37.7414 138.657 47.5041C138.657 57.9743 137.593 65.1903 135.678 69.5764L144.899 69.3642L154.19 69.5764C153.197 66.9589 152.488 63.5631 152.062 59.177C151.708 56.7717 151.424 53.6589 151.424 49.6972C151.424 38.5904 153.126 33.992 155.538 33.992C157.949 33.992 159.581 38.6611 159.581 49.768C159.581 53.8711 159.368 57.1254 158.942 59.5307C158.517 63.7046 157.808 67.1004 156.886 69.6472L166.177 69.4349H166.461L175.682 69.6472Z" fill="#333333"/>
<path d="M199.162 26.5638C195.616 26.5638 191.502 26.5638 189.161 26.6345H187.317L177.032 26.3516C178.664 30.8085 179.657 37.7414 179.657 47.5041C179.657 57.9743 178.593 65.1903 176.678 69.5764L185.899 69.3642L195.19 69.5764C193.984 66.3222 193.204 61.7945 192.779 55.852C198.382 61.4408 214.554 58.894 214.554 42.6935C214.625 32.2941 207.886 26.6345 199.162 26.5638ZM192.708 52.244C192.708 51.2536 192.637 50.1924 192.637 49.0605V46.726C192.637 38.3781 194.268 30.3133 198.311 30.3133C204.907 30.384 200.368 48.6361 192.708 52.244Z" fill="#333333"/>
<path d="M43.9545 26.4646H51.9695C49.6392 33.5748 49.2591 38.9657 49.2033 49.5273C49.2033 53.489 49.487 56.6017 49.8416 59.0071C50.2672 63.3932 50.9765 66.7889 51.9695 69.4065L42.6778 69.1943L33.457 69.4065C35.3721 65.0203 36.436 57.8044 36.436 47.3342C36.436 37.5715 35.443 30.6385 33.8117 26.1816L43.9545 26.4646Z" fill="#333333"/>
<path d="M67.6641 41.0157C67.6641 53.3423 78.1353 59.9109 85.8004 65.7903C88.5053 67.865 91.1104 69.8184 93.7156 69.8184C96.3207 69.8184 98.9259 67.865 101.631 65.7903C109.296 59.9109 119.767 53.3423 119.767 41.0157C119.767 28.6892 105.438 19.9474 93.7156 31.798C81.9928 19.9474 67.6641 28.6892 67.6641 41.0157Z" fill="#FF991F"/>
</svg>
