<svg width="341" height="132" viewBox="0 0 341 132" fill="none" xmlns="http://www.w3.org/2000/svg">
<rect width="341" height="132" rx="66" fill="white"/>
<path d="M241.554 95.7658C239.604 91.0967 238.238 84.093 237.751 74.4629V56.1755C238.238 47.5181 239.409 40.9035 241.067 36.2344L227.413 36.6235H224.975H200.983L187.036 36.2344C189.28 42.3626 190.645 51.8954 190.645 65.3192C190.645 79.7157 189.182 89.6376 186.549 95.6685L199.227 95.3767L212.003 95.6685C210.638 92.0694 209.663 87.4003 209.078 81.3693C208.59 78.062 208.2 73.782 208.2 68.3347C208.2 53.0627 210.541 46.7399 213.856 46.7399C217.172 46.7399 219.416 53.16 219.416 68.4319C219.416 74.0738 219.123 78.5484 218.538 81.8557C217.953 87.5948 216.977 92.264 215.71 95.7658L228.486 95.474H228.876L241.554 95.7658Z" fill="#333333"/>
<path d="M273.836 36.5262C268.96 36.5262 263.303 36.5262 260.085 36.6235H257.549L243.408 36.2344C245.651 42.3626 247.016 51.8954 247.016 65.3192C247.016 79.7157 245.553 89.6376 242.92 95.6685L255.599 95.3767L268.375 95.6685C266.717 91.194 265.644 84.9684 265.059 76.7975C272.764 84.4821 295 80.9802 295 58.7046C295.097 44.4054 285.832 36.6235 273.836 36.5262ZM264.961 71.8365C264.961 70.4747 264.864 69.0156 264.864 67.4592V64.2492C264.864 52.7709 267.107 41.6817 272.666 41.6817C281.736 41.779 275.494 66.8756 264.961 71.8365Z" fill="#333333"/>
<path d="M60.4341 36.3891H71.4546C68.2505 46.1656 67.7278 53.578 67.6511 68.1003C67.6511 73.5476 68.0412 77.8276 68.5288 81.135C69.114 87.1659 70.0893 91.835 71.4546 95.4342L58.6786 95.1423L46 95.4342C48.6332 89.4032 50.0961 79.4813 50.0961 65.0848C50.0961 51.661 48.7308 42.1282 46.4876 36L60.4341 36.3891Z" fill="#333333"/>
<path d="M93.0312 56.3969C93.0312 73.3459 107.429 82.3777 117.969 90.4619C121.688 93.3146 125.27 96.0005 128.852 96.0005C132.434 96.0005 136.016 93.3146 139.735 90.4619C150.275 82.3777 164.673 73.3459 164.673 56.3969C164.673 39.4479 144.971 27.428 128.852 43.7226C112.733 27.428 93.0312 39.4479 93.0312 56.3969Z" fill="#FF991F"/>
</svg>
