<svg width="583" height="161" viewBox="0 0 583 161" fill="none" xmlns="http://www.w3.org/2000/svg">
<rect width="397.143" height="80.0223" rx="21.3393" fill="#FF991F"/>
<path d="M33.3114 25.2715C35.9247 25.2715 38.0981 26.0982 39.8314 27.7515C41.5647 29.4048 42.4314 31.4715 42.4314 33.9515C42.4314 36.4582 41.5647 38.5248 39.8314 40.1515C38.0981 41.7515 35.9247 42.5515 33.3114 42.5515H24.5514V52.0715H20.6714V25.2715H33.3114ZM24.5514 38.8315H33.1914C34.7647 38.8315 36.0447 38.3782 37.0314 37.4715C38.0181 36.5648 38.5114 35.3915 38.5114 33.9515C38.5114 32.5382 38.0047 31.3782 36.9914 30.4715C36.0047 29.5382 34.7381 29.0715 33.1914 29.0715H24.5514V38.8315Z" fill="white"/>
<path d="M62.0251 35.1515V32.2715H65.7851V52.0715H62.0251V48.9915H61.8651C60.1851 51.3915 57.8118 52.6048 54.7451 52.6315C51.8651 52.6848 49.4651 51.7248 47.5451 49.7515C45.6518 47.7782 44.7051 45.2448 44.7051 42.1515C44.7051 39.0582 45.6518 36.5382 47.5451 34.5915C49.4384 32.6448 51.8518 31.6848 54.7851 31.7115C57.8251 31.7382 60.1851 32.8848 61.8651 35.1515H62.0251ZM55.3051 48.9515C57.2784 48.9515 58.8784 48.2982 60.1051 46.9915C61.3584 45.6848 61.9851 44.0715 61.9851 42.1515C61.9851 40.2315 61.3584 38.6182 60.1051 37.3115C58.8784 36.0048 57.2784 35.3515 55.3051 35.3515C53.2784 35.3515 51.6384 36.0048 50.3851 37.3115C49.1318 38.6182 48.5051 40.2315 48.5051 42.1515C48.5051 44.0715 49.1318 45.6848 50.3851 46.9915C51.6384 48.2982 53.2784 48.9515 55.3051 48.9515Z" fill="white"/>
<path d="M90.1854 32.2715V48.3915H93.5454V57.0715H89.8254V52.0715H73.5054V57.0715H69.7854V48.3915H70.0254C70.4787 48.3915 70.8254 48.3782 71.0654 48.3515C71.332 48.2982 71.652 48.1782 72.0254 47.9915C72.4254 47.7782 72.732 47.4048 72.9454 46.8715C73.1854 46.3382 73.332 45.6448 73.3854 44.7915C73.4654 43.7782 73.5054 39.6048 73.5054 32.2715H90.1854ZM76.2654 48.3915H86.3854V35.9515H77.2254C77.2254 39.6848 77.172 42.5115 77.0654 44.4315C76.9854 45.9515 76.7187 47.2715 76.2654 48.3915Z" fill="white"/>
<path d="M101.267 38.7515H107.907C109.773 38.7515 111.347 39.4048 112.627 40.7115C113.933 41.9915 114.587 43.5382 114.587 45.3515C114.587 47.2182 113.933 48.8048 112.627 50.1115C111.347 51.4182 109.773 52.0715 107.907 52.0715H97.4666V32.2715H101.267V38.7515ZM117.307 52.0715V32.2715H121.107V52.0715H117.307ZM101.267 48.3915H107.907C108.707 48.3915 109.387 48.0982 109.947 47.5115C110.507 46.9248 110.787 46.2048 110.787 45.3515C110.787 44.5515 110.507 43.8715 109.947 43.3115C109.387 42.7248 108.707 42.4315 107.907 42.4315H101.267V48.3915Z" fill="white"/>
<path d="M150.667 41.8315V41.9915C151.601 42.3115 152.307 42.8848 152.787 43.7115C153.294 44.5382 153.547 45.4448 153.547 46.4315C153.547 47.9515 153.001 49.2715 151.907 50.3915C150.841 51.5115 149.374 52.0715 147.507 52.0715H136.027V48.3915H147.307C148.054 48.3915 148.641 48.1782 149.067 47.7515C149.494 47.2982 149.707 46.7648 149.707 46.1515C149.707 45.5648 149.494 45.0582 149.067 44.6315C148.641 44.2048 148.054 43.9915 147.307 43.9915H139.027V40.3915H147.027C147.747 40.3915 148.307 40.1782 148.707 39.7515C149.134 39.2982 149.347 38.7648 149.347 38.1515C149.347 37.5648 149.147 37.0582 148.747 36.6315C148.347 36.1782 147.774 35.9515 147.027 35.9515H136.027V32.2715H147.187C149.081 32.2715 150.547 32.8048 151.587 33.8715C152.627 34.9115 153.147 36.1648 153.147 37.6315C153.147 38.5382 152.934 39.3782 152.507 40.1515C152.081 40.9248 151.467 41.4848 150.667 41.8315Z" fill="white"/>
<path d="M173.222 40.1115V32.2715H177.022V52.0715H173.222V43.7915H162.102V52.0715H158.302V32.2715H162.102V40.1115H173.222Z" fill="white"/>
<path d="M198.852 35.1515V32.2715H202.612V52.0715H198.852V48.9915H198.692C197.012 51.3915 194.639 52.6048 191.572 52.6315C188.692 52.6848 186.292 51.7248 184.372 49.7515C182.479 47.7782 181.532 45.2448 181.532 42.1515C181.532 39.0582 182.479 36.5382 184.372 34.5915C186.266 32.6448 188.679 31.6848 191.612 31.7115C194.652 31.7382 197.012 32.8848 198.692 35.1515H198.852ZM192.132 48.9515C194.106 48.9515 195.706 48.2982 196.932 46.9915C198.186 45.6848 198.812 44.0715 198.812 42.1515C198.812 40.2315 198.186 38.6182 196.932 37.3115C195.706 36.0048 194.106 35.3515 192.132 35.3515C190.106 35.3515 188.466 36.0048 187.212 37.3115C185.959 38.6182 185.332 40.2315 185.332 42.1515C185.332 44.0715 185.959 45.6848 187.212 46.9915C188.466 48.2982 190.106 48.9515 192.132 48.9515Z" fill="white"/>
<path d="M226.693 32.2715L222.133 40.1915C223.519 40.3248 224.586 40.8048 225.333 41.6315C226.079 42.4315 226.453 43.5648 226.453 45.0315V52.0715H222.653V45.6715C222.653 44.3915 221.986 43.7515 220.653 43.7515H212.373V52.0715H208.573V32.2715H212.373V40.1515H217.933L222.573 32.2715H226.693Z" fill="white"/>
<path d="M241.155 52.6315C237.981 52.6315 235.395 51.6315 233.395 49.6315C231.421 47.6048 230.435 45.1115 230.435 42.1515C230.435 39.1915 231.421 36.7115 233.395 34.7115C235.395 32.7115 237.981 31.7115 241.155 31.7115C244.275 31.7115 246.808 32.7115 248.755 34.7115C250.728 36.7115 251.715 39.1915 251.715 42.1515C251.715 45.1115 250.728 47.6048 248.755 49.6315C246.781 51.6315 244.248 52.6315 241.155 52.6315ZM241.155 48.9915C243.128 48.9915 244.741 48.3248 245.995 46.9915C247.275 45.6582 247.915 44.0448 247.915 42.1515C247.915 40.2315 247.275 38.6182 245.995 37.3115C244.741 36.0048 243.128 35.3515 241.155 35.3515C239.128 35.3515 237.475 36.0048 236.195 37.3115C234.915 38.6182 234.275 40.2315 234.275 42.1515C234.275 44.0715 234.915 45.6982 236.195 47.0315C237.475 48.3382 239.128 48.9915 241.155 48.9915Z" fill="white"/>
<path d="M279.907 32.2715V52.0715H276.107V36.6315L269.427 52.0715H266.667L259.987 36.6315V52.0715H256.187V32.2715H261.987L268.027 46.5115L274.107 32.2715H279.907Z" fill="white"/>
<path d="M304.977 39.4715H301.017C300.59 38.2715 299.83 37.2848 298.737 36.5115C297.67 35.7382 296.404 35.3515 294.937 35.3515C292.937 35.3515 291.31 36.0048 290.057 37.3115C288.831 38.6182 288.217 40.2315 288.217 42.1515C288.217 44.0715 288.831 45.6982 290.057 47.0315C291.31 48.3382 292.937 48.9915 294.937 48.9915C296.377 48.9915 297.644 48.6048 298.737 47.8315C299.857 47.0582 300.617 46.0315 301.017 44.7515H304.977C304.497 47.0448 303.337 48.9382 301.497 50.4315C299.657 51.8982 297.457 52.6315 294.897 52.6315C291.804 52.6315 289.284 51.6315 287.337 49.6315C285.391 47.6048 284.417 45.1115 284.417 42.1515C284.417 39.1915 285.391 36.7115 287.337 34.7115C289.284 32.7115 291.804 31.7115 294.897 31.7115C297.457 31.7115 299.657 32.4448 301.497 33.9115C303.337 35.3515 304.497 37.2048 304.977 39.4715Z" fill="white"/>
<path d="M324.33 32.2715V35.9515H317.33V52.0715H313.53V35.9515H306.53V32.2715H324.33Z" fill="white"/>
<path d="M343.354 41.6715V41.8315C344.368 42.2315 345.128 42.8582 345.634 43.7115C346.141 44.5648 346.394 45.4848 346.394 46.4715C346.394 47.9915 345.848 49.3115 344.754 50.4315C343.688 51.5248 342.221 52.0715 340.354 52.0715H328.194V32.2715H339.634C341.528 32.2715 342.994 32.7915 344.034 33.8315C345.074 34.8715 345.594 36.1248 345.594 37.5915C345.594 39.4582 344.848 40.8182 343.354 41.6715ZM339.474 35.9515H331.994V40.3515H339.474C340.194 40.3515 340.754 40.1382 341.154 39.7115C341.581 39.2582 341.794 38.7248 341.794 38.1115C341.794 37.5248 341.594 37.0182 341.194 36.5915C340.794 36.1648 340.221 35.9515 339.474 35.9515ZM331.994 48.3915H340.154C340.901 48.3915 341.488 48.1782 341.914 47.7515C342.341 47.2982 342.554 46.7648 342.554 46.1515C342.554 45.5648 342.341 45.0582 341.914 44.6315C341.488 44.2048 340.901 43.9915 340.154 43.9915H331.994V48.3915Z" fill="white"/>
<path d="M359.24 48.9115L365.52 32.2715H369.4L360.68 55.1515C360.04 56.8582 359.2 58.0982 358.16 58.8715C357.146 59.6715 355.8 60.0715 354.12 60.0715H349.44V56.2715H354.12C354.973 56.2715 355.626 56.0982 356.08 55.7515C356.533 55.4315 356.92 54.8582 357.24 54.0315L357.28 53.9515L348.24 32.2715H352.44L359.24 48.9115Z" fill="white"/>
<path d="M372.316 47.2715H376.836L373.116 57.5515H369.436L372.316 47.2715Z" fill="white"/>
<rect x="178" y="81.0137" width="399.143" height="80.0223" rx="21.3393" transform="rotate(-4.31238 178 81.0137)" fill="#FF991F"/>
<path d="M210.977 111.491C213.769 111.281 216.139 112.038 218.088 113.763C220.061 115.459 221.152 117.69 221.36 120.456C221.575 123.301 220.797 125.753 219.027 127.812C217.255 129.844 214.826 130.977 211.742 131.209C208.657 131.442 206.06 130.689 203.95 128.949C201.864 127.181 200.713 124.861 200.497 121.989L199.862 113.573C199.621 110.382 200.37 107.718 202.107 105.581C203.87 103.416 206.32 102.215 209.457 101.978L217.873 101.344L218.165 105.213L209.43 105.872C207.409 106.024 205.846 106.757 204.742 108.07C203.636 109.357 203.159 111.011 203.311 113.032L203.504 115.585L203.663 115.573C205.215 113.102 207.653 111.742 210.977 111.491ZM211.468 127.58C213.409 127.433 214.946 126.716 216.079 125.427C217.21 124.111 217.709 122.563 217.574 120.781C217.444 119.053 216.722 117.637 215.409 116.532C214.095 115.428 212.468 114.949 210.527 115.095C208.559 115.244 206.995 115.963 205.836 117.254C204.701 118.516 204.2 120.038 204.335 121.82C204.471 123.628 205.196 125.084 206.509 126.189C207.847 127.264 209.5 127.728 211.468 127.58Z" fill="white"/>
<path d="M234.323 125.816L239.334 108.751L243.203 108.459L236.228 131.93C235.718 133.68 234.974 134.98 233.995 135.829C233.044 136.703 231.732 137.203 230.056 137.33L225.39 137.682L225.104 133.892L229.771 133.54C230.622 133.476 231.26 133.254 231.686 132.874C232.114 132.521 232.456 131.92 232.713 131.072L232.747 130.989L222.103 110.05L226.291 109.735L234.323 125.816Z" fill="white"/>
<path d="M264.242 106.873L265.454 122.947L268.804 122.695L269.457 131.35L265.747 131.63L265.372 126.644L249.098 127.871L249.474 132.857L245.764 133.137L245.112 124.481L245.351 124.463C245.803 124.429 246.148 124.39 246.385 124.345C246.647 124.272 246.957 124.128 247.315 123.914C247.698 123.671 247.976 123.276 248.148 122.728C248.348 122.178 248.442 121.476 248.431 120.621C248.434 119.604 248.16 115.44 247.609 108.127L264.242 106.873ZM251.573 123.994L261.665 123.233L260.729 110.828L251.595 111.517C251.876 115.24 252.035 118.062 252.073 119.985C252.108 121.507 251.941 122.843 251.573 123.994Z" fill="white"/>
<path d="M281.491 122.259L286.502 105.194L290.371 104.903L283.396 128.373C282.886 130.123 282.141 131.423 281.163 132.272C280.212 133.146 278.899 133.646 277.224 133.773L272.557 134.125L272.272 130.335L276.938 129.984C277.789 129.919 278.428 129.697 278.854 129.318C279.282 128.964 279.624 128.364 279.881 127.515L279.915 127.432L269.27 106.494L273.459 106.178L281.491 122.259Z" fill="white"/>
<path d="M322.572 118.64L325.882 118.39L326.535 127.046L322.826 127.326L322.45 122.34L295.406 124.379L293.918 104.635L297.707 104.349L298.919 120.424L306.976 119.816L305.764 103.742L309.553 103.456L310.765 119.53L318.783 118.926L317.57 102.851L321.36 102.566L322.572 118.64Z" fill="white"/>
<path d="M333.478 116.133L343.441 100.901L347.23 100.615L348.719 120.359L344.93 120.645L343.847 106.285L333.881 121.478L330.092 121.763L328.603 102.02L332.392 101.734L333.478 116.133Z" fill="white"/>
<path d="M365.124 96.0564L359.141 96.5076C358.211 96.5778 357.403 96.3311 356.719 95.7676C356.059 95.1756 355.694 94.4142 355.624 93.4835L355.435 90.9706L358.625 90.73L358.767 92.6047C358.789 92.8972 358.901 93.1428 359.103 93.3415C359.33 93.5116 359.576 93.5866 359.842 93.5666L363.99 93.2538C364.256 93.2337 364.475 93.1236 364.647 92.9234C364.844 92.6946 364.931 92.434 364.909 92.1415L364.768 90.2668L367.959 90.0262L368.148 92.5391C368.219 93.4698 367.959 94.2783 367.369 94.9646C366.803 95.6223 366.055 95.9862 365.124 96.0564ZM358.075 114.278L368.037 99.0458L371.827 98.7601L373.315 118.504L369.526 118.79L368.443 104.431L358.478 119.623L354.688 119.909L353.2 100.165L356.989 99.879L358.075 114.278Z" fill="white"/>
<path d="M406.049 96.1794L402.098 104.42C403.491 104.449 404.59 104.847 405.397 105.615C406.202 106.357 406.659 107.459 406.77 108.921L407.299 115.941L403.51 116.227L403.028 109.845C402.932 108.569 402.219 107.981 400.89 108.081L392.633 108.704L393.259 117L389.47 117.286L387.981 97.542L391.77 97.2562L392.362 105.114L397.907 104.696L401.941 96.4892L406.049 96.1794Z" fill="white"/>
<path d="M422.002 115.394C418.837 115.633 416.183 114.83 414.038 112.986C411.918 111.114 410.746 108.702 410.524 105.75C410.301 102.798 411.099 100.251 412.916 98.1086C414.76 95.9638 417.264 94.7722 420.428 94.5336C423.54 94.299 426.141 95.1056 428.233 96.9536C430.351 98.7995 431.521 101.198 431.744 104.15C431.966 107.102 431.17 109.662 429.354 111.831C427.537 113.974 425.086 115.162 422.002 115.394ZM421.728 111.765C423.696 111.616 425.254 110.83 426.404 109.406C427.58 107.981 428.097 106.324 427.954 104.436C427.81 102.521 427.05 100.96 425.676 99.7538C424.328 98.545 422.67 98.0149 420.702 98.1633C418.681 98.3156 417.082 99.0915 415.904 100.491C414.725 101.89 414.209 103.547 414.353 105.461C414.497 107.376 415.258 108.95 416.634 110.183C418.009 111.39 419.707 111.917 421.728 111.765Z" fill="white"/>
<path d="M454.134 92.5535L455.623 112.297L451.833 112.583L450.621 96.5088L441.328 97.2096C441.626 101.172 441.796 104.127 441.836 106.077C441.86 107.465 441.724 108.679 441.428 109.717C441.13 110.729 440.787 111.491 440.397 112.001C440.006 112.486 439.461 112.888 438.763 113.208C438.065 113.528 437.518 113.716 437.121 113.773C436.751 113.828 436.233 113.88 435.569 113.93L434.93 113.978L434.645 110.189L435.043 110.159C435.496 110.125 435.84 110.085 436.078 110.041C436.339 109.968 436.65 109.824 437.008 109.61C437.391 109.367 437.668 108.971 437.841 108.424C438.04 107.874 438.134 107.171 438.123 106.316C438.127 105.3 437.853 101.135 437.302 93.8228L454.134 92.5535Z" fill="white"/>
<path d="M478.847 90.6899L480.336 110.434L476.547 110.72L475.335 94.6452L466.041 95.3461C466.34 99.3081 466.509 102.264 466.549 104.213C466.574 105.602 466.438 106.815 466.142 107.854C465.844 108.866 465.5 109.627 465.111 110.138C464.719 110.622 464.175 111.024 463.477 111.344C462.779 111.664 462.232 111.853 461.835 111.909C461.464 111.964 460.947 112.016 460.282 112.066L459.644 112.115L459.358 108.325L459.757 108.295C460.209 108.261 460.554 108.222 460.791 108.177C461.053 108.104 461.363 107.96 461.721 107.746C462.104 107.503 462.382 107.108 462.554 106.56C462.754 106.01 462.848 105.308 462.837 104.453C462.84 103.436 462.566 99.2718 462.015 91.9592L478.847 90.6899Z" fill="white"/>
<path d="M493.507 89.0229C496.725 88.7802 499.363 89.7179 501.421 91.8357C503.506 93.9516 504.541 96.6815 504.526 100.025L488.212 101.256C488.463 102.815 489.226 104.067 490.501 105.014C491.776 105.961 493.291 106.368 495.046 106.236C496.322 106.14 497.431 105.775 498.373 105.143C499.315 104.51 499.977 103.711 500.358 102.747L504.307 102.449C503.799 104.573 502.726 106.299 501.087 107.626C499.449 108.952 497.473 109.703 495.16 109.878C492.075 110.11 489.514 109.301 487.476 107.449C485.435 105.57 484.305 103.168 484.084 100.243C483.862 97.2916 484.632 94.7464 486.397 92.6077C488.159 90.4424 490.529 89.2474 493.507 89.0229ZM493.701 92.6586C492.159 92.7749 490.877 93.3262 489.855 94.3125C488.83 95.2722 488.225 96.4678 488.039 97.8992L500.165 96.9848C499.764 95.5709 498.972 94.4674 497.789 93.6741C496.633 92.8788 495.27 92.5403 493.701 92.6586Z" fill="white"/>
<path d="M523.317 87.3366L523.593 91.0062L512.226 91.8634L513.438 107.938L509.648 108.223L508.16 88.4795L523.317 87.3366Z" fill="white"/>
<path d="M542.462 88.781L542.246 85.9092L545.995 85.6264L547.484 105.37L543.735 105.653L543.503 102.582L543.344 102.594C541.849 105.113 539.573 106.502 536.517 106.759C533.65 107.029 531.184 106.252 529.121 104.429C527.085 102.603 525.95 100.148 525.718 97.0636C525.485 93.979 526.24 91.3949 527.981 89.3114C529.723 87.2279 532.057 86.0891 534.984 85.8952C538.018 85.6932 540.457 86.6591 542.303 88.7931L542.462 88.781ZM536.799 103.047C538.767 102.899 540.313 102.127 541.438 100.732C542.59 99.3347 543.093 97.6788 542.949 95.7642C542.805 93.8496 542.058 92.288 540.71 91.0793C539.389 89.8686 537.744 89.3374 535.776 89.4858C533.756 89.6382 532.169 90.413 531.018 91.8102C529.866 93.2074 529.363 94.8633 529.507 96.7778C529.651 98.6924 530.398 100.254 531.746 101.463C533.094 102.671 534.778 103.2 536.799 103.047Z" fill="white"/>
<path d="M553.089 95.9222L551.511 78.1907L555.619 77.8809L556.718 95.6485L553.089 95.9222ZM552.886 100.149L557.473 99.8035L557.834 104.59L553.247 104.936L552.886 100.149Z" fill="white"/>
</svg>
