<svg width="329" height="91" viewBox="0 0 329 91" fill="none" xmlns="http://www.w3.org/2000/svg">
<rect width="224.275" height="45.1761" rx="12.047" fill="#FF991F"/>
<path d="M18.8058 14.5069C20.2811 14.5069 21.508 14.9736 22.4866 15.907C23.4651 16.8404 23.9544 18.0071 23.9544 19.4072C23.9544 20.8223 23.4651 21.989 22.4866 22.9074C21.508 23.8106 20.2811 24.2623 18.8058 24.2623H13.8604V29.6367H11.6699V14.5069H18.8058ZM13.8604 22.1622H18.738C19.6262 22.1622 20.3489 21.9062 20.9059 21.3944C21.4629 20.8825 21.7414 20.2201 21.7414 19.4072C21.7414 18.6093 21.4554 17.9544 20.8833 17.4426C20.3263 16.9157 19.6112 16.6522 18.738 16.6522H13.8604V22.1622ZM35.0159 20.0846V18.4587H37.1386V29.6367H35.0159V27.8979H34.9256C33.9772 29.2528 32.6373 29.9378 30.906 29.9529C29.2801 29.983 27.9252 29.441 26.8413 28.327C25.7724 27.2129 25.238 25.7828 25.238 24.0364C25.238 22.2901 25.7724 20.8675 26.8413 19.7685C27.9102 18.6695 29.2726 18.1276 30.9286 18.1426C32.6448 18.1577 33.9772 18.805 34.9256 20.0846H35.0159ZM31.2222 27.8753C32.3362 27.8753 33.2395 27.5065 33.932 26.7688C34.6396 26.0312 34.9933 25.1204 34.9933 24.0364C34.9933 22.9525 34.6396 22.0417 33.932 21.3041C33.2395 20.5664 32.3362 20.1975 31.2222 20.1975C30.078 20.1975 29.1522 20.5664 28.4446 21.3041C27.7371 22.0417 27.3833 22.9525 27.3833 24.0364C27.3833 25.1204 27.7371 26.0312 28.4446 26.7688C29.1522 27.5065 30.078 27.8753 31.2222 27.8753ZM50.9136 18.4587V27.5592H52.8105V32.4594H50.7104V29.6367H41.497V32.4594H39.3969V27.5592H39.5324C39.7883 27.5592 39.9841 27.5517 40.1195 27.5366C40.2701 27.5065 40.4507 27.4388 40.6615 27.3334C40.8873 27.2129 41.0604 27.0022 41.1809 26.7011C41.3164 26.4 41.3992 26.0086 41.4293 25.5268C41.4744 24.9548 41.497 22.5987 41.497 18.4587H50.9136ZM43.0552 27.5592H48.7684V20.5363H43.5971C43.5971 22.6439 43.567 24.2397 43.5068 25.3236C43.4616 26.1817 43.3111 26.9269 43.0552 27.5592ZM57.1694 22.117H60.918C61.9718 22.117 62.86 22.4858 63.5827 23.2235C64.3203 23.9461 64.6892 24.8193 64.6892 25.843C64.6892 26.8968 64.3203 27.7925 63.5827 28.5302C62.86 29.2679 61.9718 29.6367 60.918 29.6367H55.0242V18.4587H57.1694V22.117ZM66.2247 29.6367V18.4587H68.37V29.6367H66.2247ZM57.1694 27.5592H60.918C61.3697 27.5592 61.7535 27.3936 62.0697 27.0624C62.3858 26.7312 62.5439 26.3247 62.5439 25.843C62.5439 25.3913 62.3858 25.0075 62.0697 24.6913C61.7535 24.3601 61.3697 24.1945 60.918 24.1945H57.1694V27.5592ZM85.0584 23.8558V23.9461C85.5853 24.1268 85.9842 24.4504 86.2552 24.9171C86.5413 25.3838 86.6843 25.8957 86.6843 26.4527C86.6843 27.3108 86.3757 28.056 85.7584 28.6883C85.1562 29.3206 84.3282 29.6367 83.2744 29.6367H76.7935V27.5592H83.1615C83.583 27.5592 83.9142 27.4388 84.1551 27.1979C84.396 26.942 84.5164 26.6409 84.5164 26.2946C84.5164 25.9634 84.396 25.6774 84.1551 25.4365C83.9142 25.1956 83.583 25.0752 83.1615 25.0752H78.4871V23.0428H83.0035C83.4099 23.0428 83.7261 22.9224 83.9519 22.6815C84.1928 22.4256 84.3132 22.1245 84.3132 21.7783C84.3132 21.4471 84.2003 21.161 83.9745 20.9202C83.7486 20.6642 83.425 20.5363 83.0035 20.5363H76.7935V18.4587H83.0938C84.1626 18.4587 84.9906 18.7598 85.5778 19.362C86.1649 19.9491 86.4585 20.6567 86.4585 21.4847C86.4585 21.9966 86.338 22.4708 86.0972 22.9074C85.8563 23.3439 85.51 23.6601 85.0584 23.8558ZM97.7915 22.8848V18.4587H99.9367V29.6367H97.7915V24.9623H91.5137V29.6367H89.3685V18.4587H91.5137V22.8848H97.7915ZM112.261 20.0846V18.4587H114.384V29.6367H112.261V27.8979H112.171C111.222 29.2528 109.882 29.9378 108.151 29.9529C106.525 29.983 105.17 29.441 104.086 28.327C103.017 27.2129 102.483 25.7828 102.483 24.0364C102.483 22.2901 103.017 20.8675 104.086 19.7685C105.155 18.6695 106.518 18.1276 108.174 18.1426C109.89 18.1577 111.222 18.805 112.171 20.0846H112.261ZM108.467 27.8753C109.581 27.8753 110.484 27.5065 111.177 26.7688C111.885 26.0312 112.238 25.1204 112.238 24.0364C112.238 22.9525 111.885 22.0417 111.177 21.3041C110.484 20.5664 109.581 20.1975 108.467 20.1975C107.323 20.1975 106.397 20.5664 105.69 21.3041C104.982 22.0417 104.628 22.9525 104.628 24.0364C104.628 25.1204 104.982 26.0312 105.69 26.7688C106.397 27.5065 107.323 27.8753 108.467 27.8753ZM127.978 18.4587L125.404 22.9299C126.186 23.0052 126.789 23.2762 127.21 23.7429C127.632 24.1945 127.842 24.8343 127.842 25.6623V29.6367H125.697V26.0236C125.697 25.301 125.321 24.9397 124.568 24.9397H119.894V29.6367H117.748V18.4587H119.894V22.9074H123.033L125.652 18.4587H127.978ZM136.142 29.9529C134.351 29.9529 132.891 29.3883 131.762 28.2592C130.648 27.1151 130.091 25.7075 130.091 24.0364C130.091 22.3654 130.648 20.9653 131.762 19.8362C132.891 18.7071 134.351 18.1426 136.142 18.1426C137.904 18.1426 139.334 18.7071 140.433 19.8362C141.547 20.9653 142.104 22.3654 142.104 24.0364C142.104 25.7075 141.547 27.1151 140.433 28.2592C139.319 29.3883 137.889 29.9529 136.142 29.9529ZM136.142 27.8979C137.256 27.8979 138.167 27.5216 138.875 26.7688C139.597 26.0161 139.959 25.1053 139.959 24.0364C139.959 22.9525 139.597 22.0417 138.875 21.3041C138.167 20.5664 137.256 20.1975 136.142 20.1975C134.998 20.1975 134.065 20.5664 133.342 21.3041C132.62 22.0417 132.258 22.9525 132.258 24.0364C132.258 25.1204 132.62 26.0387 133.342 26.7914C134.065 27.5291 134.998 27.8979 136.142 27.8979ZM158.02 18.4587V29.6367H155.874V20.9202L152.103 29.6367H150.545L146.774 20.9202V29.6367H144.629V18.4587H147.903L151.313 26.4979L154.745 18.4587H158.02ZM172.173 22.5235H169.937C169.697 21.846 169.267 21.289 168.65 20.8524C168.048 20.4158 167.333 20.1975 166.505 20.1975C165.376 20.1975 164.458 20.5664 163.75 21.3041C163.057 22.0417 162.711 22.9525 162.711 24.0364C162.711 25.1204 163.057 26.0387 163.75 26.7914C164.458 27.5291 165.376 27.8979 166.505 27.8979C167.318 27.8979 168.033 27.6796 168.65 27.2431C169.283 26.8065 169.712 26.2269 169.937 25.5043H172.173C171.902 26.7989 171.247 27.8678 170.208 28.7109C169.17 29.5389 167.928 29.9529 166.482 29.9529C164.736 29.9529 163.313 29.3883 162.214 28.2592C161.115 27.1151 160.566 25.7075 160.566 24.0364C160.566 22.3654 161.115 20.9653 162.214 19.8362C163.313 18.7071 164.736 18.1426 166.482 18.1426C167.928 18.1426 169.17 18.5566 170.208 19.3846C171.247 20.1975 171.902 21.2438 172.173 22.5235ZM183.098 18.4587V20.5363H179.147V29.6367H177.001V20.5363H173.049V18.4587H183.098ZM193.839 23.7655V23.8558C194.411 24.0816 194.84 24.4354 195.126 24.9171C195.412 25.3989 195.555 25.9183 195.555 26.4753C195.555 27.3334 195.246 28.0786 194.629 28.7109C194.027 29.3281 193.199 29.6367 192.145 29.6367H185.28V18.4587H191.738C192.807 18.4587 193.635 18.7523 194.222 19.3394C194.81 19.9266 195.103 20.6341 195.103 21.4621C195.103 22.5159 194.682 23.2837 193.839 23.7655ZM191.648 20.5363H187.425V23.0203H191.648C192.055 23.0203 192.371 22.8998 192.597 22.659C192.837 22.403 192.958 22.1019 192.958 21.7557C192.958 21.4245 192.845 21.1385 192.619 20.8976C192.393 20.6567 192.07 20.5363 191.648 20.5363ZM187.425 27.5592H192.032C192.454 27.5592 192.785 27.4388 193.026 27.1979C193.266 26.942 193.387 26.6409 193.387 26.2946C193.387 25.9634 193.266 25.6774 193.026 25.4365C192.785 25.1956 192.454 25.0752 192.032 25.0752H187.425V27.5592ZM202.807 27.8528L206.352 18.4587H208.542L203.62 31.3755C203.258 32.339 202.784 33.039 202.197 33.4756C201.625 33.9273 200.865 34.1531 199.916 34.1531H197.274V32.0078H199.916C200.398 32.0078 200.767 31.9099 201.023 31.7142C201.279 31.5336 201.497 31.2099 201.678 30.7432L201.7 30.6981L196.597 18.4587H198.968L202.807 27.8528ZM210.189 26.9269H212.74L210.64 32.7304H208.563L210.189 26.9269Z" fill="white"/>
<rect x="100.492" y="45.7305" width="225.275" height="45.1761" rx="12.047" transform="rotate(-4.31238 100.492 45.7305)" fill="#FF991F"/>
<path d="M119.127 63.1761C120.703 63.0573 122.041 63.4848 123.141 64.4586C124.255 65.4163 124.871 66.6758 124.989 68.237C125.11 69.8433 124.671 71.2276 123.672 72.39C122.671 73.5373 121.3 74.1767 119.559 74.308C117.817 74.4393 116.351 74.0139 115.16 73.0318C113.982 72.0336 113.333 70.7239 113.21 69.1026L112.852 64.3513C112.716 62.5499 113.139 61.0461 114.12 59.8398C115.115 58.6174 116.498 57.9394 118.269 57.8058L123.02 57.4475L123.185 59.6318L118.254 60.0036C117.113 60.0897 116.231 60.5034 115.607 61.2449C114.983 61.9714 114.713 62.9051 114.799 64.046L114.908 65.4871L114.998 65.4803C115.874 64.0857 117.251 63.3176 119.127 63.1761ZM119.404 72.2589C120.5 72.1762 121.368 71.7711 122.008 71.0435C122.646 70.3009 122.927 69.4267 122.851 68.4209C122.778 67.4451 122.37 66.6455 121.629 66.022C120.887 65.3986 119.969 65.1281 118.873 65.2108C117.762 65.2945 116.879 65.7008 116.225 66.4295C115.584 67.1421 115.301 68.0013 115.377 69.0071C115.454 70.0279 115.863 70.8501 116.605 71.4735C117.36 72.0809 118.293 72.3426 119.404 72.2589ZM132.307 71.2633L135.136 61.6293L137.32 61.4646L133.382 74.7149C133.094 75.7029 132.674 76.4366 132.122 76.9161C131.585 77.4094 130.844 77.6918 129.898 77.7631L127.264 77.9618L127.102 75.8226L129.737 75.6239C130.217 75.5877 130.578 75.4624 130.818 75.248C131.06 75.0486 131.253 74.7094 131.398 74.2305L131.417 74.1837L125.408 62.3628L127.772 62.1845L132.307 71.2633ZM149.197 60.5689L149.882 69.6436L151.773 69.501L152.142 74.3873L150.047 74.5452L149.835 71.7305L140.648 72.4233L140.86 75.238L138.766 75.3959L138.397 70.5096L138.533 70.4994C138.788 70.4801 138.982 70.4579 139.116 70.4327C139.264 70.3914 139.439 70.3102 139.641 70.1893C139.858 70.0522 140.014 69.8291 140.112 69.5198C140.224 69.2093 140.277 68.8128 140.271 68.3302C140.273 67.7563 140.119 65.4052 139.807 61.277L149.197 60.5689ZM142.045 70.2345L147.742 69.8049L147.214 62.8019L142.058 63.1907C142.216 65.2924 142.306 66.8859 142.328 67.9713C142.347 68.8304 142.253 69.5848 142.045 70.2345ZM158.935 69.2553L161.764 59.6213L163.948 59.4566L160.011 72.7069C159.723 73.6949 159.302 74.4286 158.75 74.9081C158.213 75.4014 157.472 75.6838 156.526 75.7551L153.892 75.9538L153.731 73.8146L156.365 73.6159C156.846 73.5797 157.206 73.4544 157.446 73.24C157.688 73.0406 157.881 72.7014 158.026 72.2225L158.046 72.1757L152.036 60.3548L154.401 60.1765L158.935 69.2553ZM182.127 67.212L183.996 67.0711L184.365 71.9575L182.271 72.1154L182.058 69.3006L166.791 70.4519L165.951 59.3056L168.09 59.1443L168.774 68.2189L173.323 67.8759L172.638 58.8013L174.778 58.64L175.462 67.7146L179.988 67.3733L179.304 58.2986L181.443 58.1373L182.127 67.212ZM188.284 65.7966L193.909 57.1973L196.048 57.036L196.888 68.1823L194.749 68.3436L194.138 60.2372L188.512 68.814L186.373 68.9753L185.532 57.829L187.671 57.6677L188.284 65.7966ZM206.15 54.4626L202.772 54.7173C202.247 54.7569 201.791 54.6176 201.405 54.2995C201.032 53.9653 200.826 53.5355 200.787 53.01L200.68 51.5914L202.481 51.4556L202.561 52.5139C202.573 52.679 202.637 52.8177 202.751 52.9299C202.879 53.0259 203.018 53.0682 203.168 53.0569L205.51 52.8803C205.66 52.869 205.784 52.8069 205.881 52.6938C205.992 52.5647 206.041 52.4176 206.029 52.2524L205.949 51.1941L207.75 51.0582L207.857 52.4769C207.897 53.0023 207.75 53.4587 207.417 53.8462C207.098 54.2175 206.675 54.4229 206.15 54.4626ZM202.17 64.7495L207.795 56.1502L209.934 55.9889L210.774 67.1352L208.635 67.2965L208.024 59.1901L202.398 67.7669L200.258 67.9282L199.418 56.7819L201.557 56.6206L202.17 64.7495ZM229.254 54.532L227.023 59.1841C227.809 59.2003 228.43 59.4252 228.886 59.8589C229.34 60.2776 229.598 60.8997 229.661 61.7254L229.959 65.6885L227.82 65.8498L227.548 62.247C227.494 61.5264 227.092 61.1944 226.341 61.251L221.68 61.6025L222.033 66.2862L219.894 66.4475L219.053 55.3012L221.193 55.1399L221.527 59.5759L224.657 59.3399L226.935 54.7069L229.254 54.532ZM238.26 65.3797C236.473 65.5144 234.975 65.0612 233.764 64.0202C232.567 62.9631 231.906 61.6014 231.78 59.9351C231.654 58.2687 232.104 56.8308 233.13 55.6211C234.171 54.4103 235.585 53.7376 237.372 53.6028C239.128 53.4704 240.597 53.9258 241.777 54.9691C242.973 56.0112 243.634 57.3654 243.759 59.0317C243.885 60.698 243.436 62.1435 242.411 63.3682C241.385 64.5779 240.001 65.2483 238.26 65.3797ZM238.105 63.3305C239.216 63.2468 240.096 62.803 240.745 61.9992C241.409 61.1943 241.701 60.2589 241.62 59.193C241.539 58.1122 241.11 57.2311 240.334 56.5499C239.573 55.8675 238.637 55.5682 237.526 55.652C236.385 55.738 235.482 56.176 234.817 56.9659C234.152 57.7558 233.86 58.6912 233.942 59.7721C234.023 60.8529 234.453 61.7415 235.23 62.4377C236.006 63.119 236.964 63.4166 238.105 63.3305ZM256.4 52.485L257.24 63.6313L255.101 63.7927L254.417 54.718L249.17 55.1136C249.339 57.3504 249.434 59.019 249.457 60.1194C249.471 60.9034 249.394 61.5885 249.227 62.1748C249.059 62.7461 248.865 63.1759 248.645 63.4642C248.424 63.7376 248.116 63.9646 247.722 64.1452C247.328 64.3259 247.019 64.4323 246.795 64.4643C246.586 64.4951 246.294 64.5247 245.919 64.553L245.559 64.5802L245.397 62.441L245.622 62.424C245.878 62.4047 246.072 62.3825 246.206 62.3573C246.354 62.316 246.529 62.2348 246.731 62.1139C246.947 61.9768 247.104 61.7537 247.202 61.4444C247.314 61.1339 247.367 60.7374 247.361 60.2548C247.363 59.6809 247.208 57.3298 246.897 53.2016L256.4 52.485ZM270.352 51.4329L271.192 62.5793L269.053 62.7406L268.369 53.6659L263.122 54.0615C263.291 56.2983 263.386 57.9669 263.409 59.0673C263.423 59.8513 263.346 60.5364 263.179 61.1227C263.011 61.694 262.816 62.1238 262.597 62.4122C262.376 62.6855 262.068 62.9125 261.674 63.0932C261.28 63.2738 260.971 63.3802 260.747 63.4122C260.538 63.443 260.246 63.4726 259.871 63.5009L259.51 63.5281L259.349 61.3889L259.574 61.3719C259.829 61.3527 260.024 61.3304 260.158 61.3052C260.306 61.2639 260.481 61.1828 260.683 61.0618C260.899 60.9248 261.056 60.7016 261.154 60.3923C261.266 60.0819 261.319 59.6853 261.313 59.2027C261.315 58.6288 261.16 56.2778 260.849 52.1495L270.352 51.4329ZM278.628 50.4918C280.444 50.3548 281.933 50.8842 283.095 52.0798C284.273 53.2743 284.857 54.8155 284.848 56.7033L275.638 57.3978C275.78 58.2778 276.211 58.9851 276.931 59.5196C277.65 60.0541 278.506 60.284 279.496 60.2093C280.217 60.155 280.843 59.9493 281.375 59.5921C281.906 59.235 282.28 58.7841 282.496 58.2394L284.725 58.0713C284.438 59.2705 283.832 60.2447 282.907 60.9938C281.982 61.743 280.867 62.1668 279.561 62.2652C277.819 62.3966 276.373 61.9394 275.223 60.8939C274.071 59.8334 273.433 58.4775 273.308 56.8262C273.182 55.1599 273.618 53.723 274.613 52.5156C275.608 51.2932 276.946 50.6186 278.628 50.4918ZM278.737 52.5443C277.866 52.61 277.143 52.9212 276.566 53.478C275.988 54.0198 275.646 54.6948 275.541 55.5029L282.386 54.9867C282.16 54.1885 281.713 53.5655 281.045 53.1176C280.392 52.6686 279.623 52.4775 278.737 52.5443ZM295.456 49.5398L295.613 51.6115L289.195 52.0954L289.879 61.1701L287.74 61.3314L286.9 50.1851L295.456 49.5398ZM306.265 50.3553L306.143 48.734L308.26 48.5744L309.1 59.7207L306.983 59.8803L306.853 58.1464L306.763 58.1532C305.919 59.5756 304.634 60.3594 302.909 60.5046C301.29 60.6569 299.898 60.2183 298.733 59.189C297.584 58.1585 296.943 56.7725 296.812 55.0311C296.681 53.2898 297.107 51.831 298.09 50.6547C299.073 49.4785 300.391 48.8356 302.043 48.7261C303.756 48.6121 305.133 49.1574 306.175 50.3621L306.265 50.3553ZM303.068 58.4092C304.179 58.3254 305.052 57.8897 305.687 57.1021C306.337 56.3133 306.621 55.3785 306.54 54.2976C306.458 53.2167 306.037 52.3351 305.276 51.6527C304.53 50.9692 303.601 50.6694 302.491 50.7531C301.35 50.8392 300.454 51.2766 299.804 52.0654C299.154 52.8542 298.87 53.789 298.951 54.8698C299.033 55.9507 299.454 56.8323 300.215 57.5147C300.976 58.1971 301.927 58.4952 303.068 58.4092ZM312.264 54.3868L311.373 44.3766L313.693 44.2017L314.313 54.2323L312.264 54.3868ZM312.15 56.7732L314.739 56.578L314.943 59.2801L312.353 59.4754L312.15 56.7732Z" fill="white"/>
</svg>
