<svg width="88" height="88" viewBox="0 0 88 88" fill="none" xmlns="http://www.w3.org/2000/svg">
<g clip-path="url(#clip0_1996_17569)">
<path d="M44 88C68.3008 88 88 68.3008 88 44C88 19.6992 68.3008 0 44 0C19.6992 0 0 19.6992 0 44C0 68.3008 19.6992 88 44 88Z" fill="#D6001C"/>
<path d="M25.0238 24.1445V39.1119C27.3026 36.3949 30.0343 35.0272 33.2023 35.0272C34.834 35.0272 36.2951 35.3389 37.606 35.9567C38.9205 36.5709 39.9031 37.3592 40.5668 38.3162C41.2341 39.2824 41.6851 40.3402 41.929 41.5062C42.171 42.6667 42.292 44.4725 42.292 46.9219V62.925H35.2116V48.5114C35.2116 45.6514 35.0833 43.84 34.8138 43.07C34.5613 42.3157 34.0604 41.6694 33.393 41.2367C32.711 40.7765 31.8621 40.5492 30.8373 40.5492C29.664 40.5492 28.6116 40.8425 27.6968 41.4255C26.7618 42.0122 26.0908 42.8885 25.6655 44.06C25.2328 45.2334 25.0165 46.9659 25.0238 49.2594L25.0165 62.925H17.9453V24.1445H25.0256M52.9033 24.1445V39.1119C55.184 36.3949 57.9138 35.0272 61.08 35.0272C62.7062 35.0272 64.1783 35.3389 65.491 35.9567C66.8 36.5709 67.7826 37.3592 68.4426 38.3162C69.1087 39.276 69.5722 40.3614 69.8048 41.5062C70.0486 42.6667 70.1697 44.4725 70.1697 46.9219V62.925H63.0966V48.5114C63.0966 45.6514 62.9628 43.84 62.6933 43.07C62.4408 42.3147 61.9383 41.668 61.2688 41.2367C60.5941 40.7765 59.738 40.5492 58.7132 40.5492C57.5416 40.5492 56.4893 40.8425 55.5726 41.4255C54.6505 42.0122 53.9758 42.8885 53.545 44.06C53.1196 45.2334 52.9033 46.9659 52.9033 49.2594V62.925H45.8321V24.1445H52.9033Z" fill="#FEFEFE"/>
</g>
<defs>
<clipPath id="clip0_1996_17569">
<rect width="88" height="88" fill="white"/>
</clipPath>
</defs>
</svg>
