<svg width="748" height="163" viewBox="0 0 748 163" fill="none" xmlns="http://www.w3.org/2000/svg">
<rect width="589.143" height="80.0223" rx="21.3393" fill="#FF991F"/>
<path d="M43.6314 25.2715V52.0715H39.7514V29.0715H24.5514V52.0715H20.6714V25.2715H43.6314Z" fill="white"/>
<path d="M61.1257 31.7115C64.0591 31.6848 66.4724 32.6448 68.3657 34.5915C70.259 36.5382 71.2057 39.0582 71.2057 42.1515C71.2057 45.2448 70.2457 47.7782 68.3257 49.7515C66.4324 51.7248 64.0457 52.6848 61.1657 52.6315C58.0991 52.6048 55.7257 51.3915 54.0457 48.9915H53.8857V60.0715H50.1257V32.2715H53.8857V35.1515H54.0857C54.8324 34.1115 55.8057 33.2848 57.0057 32.6715C58.2324 32.0582 59.6057 31.7382 61.1257 31.7115ZM60.6057 48.9515C62.6324 48.9515 64.2724 48.2982 65.5257 46.9915C66.7791 45.6848 67.4057 44.0715 67.4057 42.1515C67.4057 40.2315 66.7791 38.6182 65.5257 37.3115C64.2724 36.0048 62.6324 35.3515 60.6057 35.3515C58.6324 35.3515 57.0191 36.0048 55.7657 37.3115C54.5391 38.6182 53.9257 40.2315 53.9257 42.1515C53.9257 44.0715 54.5391 45.6848 55.7657 46.9915C57.0191 48.2982 58.6324 48.9515 60.6057 48.9515Z" fill="white"/>
<path d="M79.4907 46.7115L90.5707 32.2715H94.3707V52.0715H90.5707V37.6715L79.4907 52.0715H75.6907V32.2715H79.4907V46.7115Z" fill="white"/>
<path d="M119.442 39.4715H115.482C115.055 38.2715 114.295 37.2848 113.202 36.5115C112.135 35.7382 110.869 35.3515 109.402 35.3515C107.402 35.3515 105.775 36.0048 104.522 37.3115C103.295 38.6182 102.682 40.2315 102.682 42.1515C102.682 44.0715 103.295 45.6982 104.522 47.0315C105.775 48.3382 107.402 48.9915 109.402 48.9915C110.842 48.9915 112.109 48.6048 113.202 47.8315C114.322 47.0582 115.082 46.0315 115.482 44.7515H119.442C118.962 47.0448 117.802 48.9382 115.962 50.4315C114.122 51.8982 111.922 52.6315 109.362 52.6315C106.269 52.6315 103.749 51.6315 101.802 49.6315C99.8552 47.6048 98.8819 45.1115 98.8819 42.1515C98.8819 39.1915 99.8552 36.7115 101.802 34.7115C103.749 32.7115 106.269 31.7115 109.362 31.7115C111.922 31.7115 114.122 32.4448 115.962 33.9115C117.802 35.3515 118.962 37.2048 119.442 39.4715Z" fill="white"/>
<path d="M133.33 52.6315C130.157 52.6315 127.57 51.6315 125.57 49.6315C123.597 47.6048 122.61 45.1115 122.61 42.1515C122.61 39.1915 123.597 36.7115 125.57 34.7115C127.57 32.7115 130.157 31.7115 133.33 31.7115C136.45 31.7115 138.983 32.7115 140.93 34.7115C142.903 36.7115 143.89 39.1915 143.89 42.1515C143.89 45.1115 142.903 47.6048 140.93 49.6315C138.957 51.6315 136.423 52.6315 133.33 52.6315ZM133.33 48.9915C135.303 48.9915 136.917 48.3248 138.17 46.9915C139.45 45.6582 140.09 44.0448 140.09 42.1515C140.09 40.2315 139.45 38.6182 138.17 37.3115C136.917 36.0048 135.303 35.3515 133.33 35.3515C131.303 35.3515 129.65 36.0048 128.37 37.3115C127.09 38.6182 126.45 40.2315 126.45 42.1515C126.45 44.0715 127.09 45.6982 128.37 47.0315C129.65 48.3382 131.303 48.9915 133.33 48.9915Z" fill="white"/>
<path d="M157.517 31.7115C160.744 31.7115 163.304 32.8448 165.197 35.1115C167.117 37.3782 167.944 40.1782 167.677 43.5115H151.317C151.451 45.0848 152.117 46.3915 153.317 47.4315C154.517 48.4715 155.997 48.9915 157.757 48.9915C159.037 48.9915 160.171 48.7115 161.157 48.1515C162.144 47.5915 162.864 46.8448 163.317 45.9115H167.277C166.611 47.9915 165.411 49.6315 163.677 50.8315C161.944 52.0315 159.917 52.6315 157.597 52.6315C154.504 52.6315 152.011 51.6315 150.117 49.6315C148.224 47.6048 147.277 45.1248 147.277 42.1915C147.277 39.2315 148.237 36.7515 150.157 34.7515C152.077 32.7248 154.531 31.7115 157.517 31.7115ZM157.437 35.3515C155.891 35.3515 154.571 35.8048 153.477 36.7115C152.384 37.5915 151.691 38.7382 151.397 40.1515H163.557C163.264 38.7115 162.557 37.5515 161.437 36.6715C160.344 35.7915 159.011 35.3515 157.437 35.3515Z" fill="white"/>
<path d="M190.414 32.2715V48.3915H193.774V57.0715H190.054V52.0715H173.734V57.0715H170.014V48.3915H170.254C170.707 48.3915 171.054 48.3782 171.294 48.3515C171.561 48.2982 171.881 48.1782 172.254 47.9915C172.654 47.7782 172.961 47.4048 173.174 46.8715C173.414 46.3382 173.561 45.6448 173.614 44.7915C173.694 43.7782 173.734 39.6048 173.734 32.2715H190.414ZM176.494 48.3915H186.614V35.9515H177.454C177.454 39.6848 177.401 42.5115 177.294 44.4315C177.214 45.9515 176.947 47.2715 176.494 48.3915Z" fill="white"/>
<path d="M201.495 46.7115L212.575 32.2715H216.375V52.0715H212.575V37.6715L201.495 52.0715H197.695V32.2715H201.495V46.7115Z" fill="white"/>
<path d="M237.282 40.1115V32.2715H241.082V52.0715H237.282V43.7915H226.162V52.0715H222.362V32.2715H226.162V40.1115H237.282Z" fill="white"/>
<path d="M264.667 32.2715V52.0715H260.867V45.1515H252.307C250.974 45.1515 250.307 45.7648 250.307 46.9915V52.0715H246.507V46.3915C246.507 44.3382 247.281 43.0582 248.827 42.5515V42.4315C247.334 41.5248 246.587 40.0982 246.587 38.1515C246.587 36.5515 247.174 35.1782 248.347 34.0315C249.521 32.8582 251.147 32.2715 253.227 32.2715H264.667ZM253.427 41.4715H260.867V35.9515H253.227C252.347 35.9515 251.654 36.2315 251.147 36.7915C250.641 37.3248 250.387 37.9648 250.387 38.7115C250.387 39.4848 250.667 40.1382 251.227 40.6715C251.814 41.2048 252.547 41.4715 253.427 41.4715Z" fill="white"/>
<path d="M282.84 29.0715H276.84C275.907 29.0715 275.12 28.7648 274.48 28.1515C273.867 27.5115 273.56 26.7248 273.56 25.7915V23.2715H276.76V25.1515C276.76 25.4448 276.853 25.6981 277.04 25.9115C277.253 26.0982 277.493 26.1915 277.76 26.1915H281.92C282.187 26.1915 282.413 26.0982 282.6 25.9115C282.813 25.6981 282.92 25.4448 282.92 25.1515V23.2715H286.12V25.7915C286.12 26.7248 285.8 27.5115 285.16 28.1515C284.547 28.7648 283.773 29.0715 282.84 29.0715ZM274.44 46.7115L285.52 32.2715H289.32V52.0715H285.52V37.6715L274.44 52.0715H270.64V32.2715H274.44V46.7115Z" fill="white"/>
<path d="M314.391 39.4715H310.431C310.005 38.2715 309.245 37.2848 308.151 36.5115C307.085 35.7382 305.818 35.3515 304.351 35.3515C302.351 35.3515 300.725 36.0048 299.471 37.3115C298.245 38.6182 297.631 40.2315 297.631 42.1515C297.631 44.0715 298.245 45.6982 299.471 47.0315C300.725 48.3382 302.351 48.9915 304.351 48.9915C305.791 48.9915 307.058 48.6048 308.151 47.8315C309.271 47.0582 310.031 46.0315 310.431 44.7515H314.391C313.911 47.0448 312.751 48.9382 310.911 50.4315C309.071 51.8982 306.871 52.6315 304.311 52.6315C301.218 52.6315 298.698 51.6315 296.751 49.6315C294.805 47.6048 293.831 45.1115 293.831 42.1515C293.831 39.1915 294.805 36.7115 296.751 34.7115C298.698 32.7115 301.218 31.7115 304.311 31.7115C306.871 31.7115 309.071 32.4448 310.911 33.9115C312.751 35.3515 313.911 37.2048 314.391 39.4715Z" fill="white"/>
<path d="M336.401 32.2715V52.0715H332.601V45.1515H324.041C322.708 45.1515 322.041 45.7648 322.041 46.9915V52.0715H318.241V46.3915C318.241 44.3382 319.015 43.0582 320.561 42.5515V42.4315C319.068 41.5248 318.321 40.0982 318.321 38.1515C318.321 36.5515 318.908 35.1782 320.081 34.0315C321.255 32.8582 322.881 32.2715 324.961 32.2715H336.401ZM325.161 41.4715H332.601V35.9515H324.961C324.081 35.9515 323.388 36.2315 322.881 36.7915C322.375 37.3248 322.121 37.9648 322.121 38.7115C322.121 39.4848 322.401 40.1382 322.961 40.6715C323.548 41.2048 324.281 41.4715 325.161 41.4715Z" fill="white"/>
<path d="M370.707 32.2715L366.147 40.1915C367.534 40.3248 368.601 40.8048 369.347 41.6315C370.094 42.4315 370.467 43.5648 370.467 45.0315V52.0715H366.667V45.6715C366.667 44.3915 366.001 43.7515 364.667 43.7515H356.387V52.0715H352.587V32.2715H356.387V40.1515H361.947L366.587 32.2715H370.707Z" fill="white"/>
<path d="M404.298 32.2715L399.738 40.1915C401.125 40.3248 402.191 40.8048 402.938 41.6315C403.685 42.4315 404.058 43.5648 404.058 45.0315V52.0715H400.258V45.6715C400.258 44.3915 399.591 43.7515 398.258 43.7515H389.978V52.0715H386.178V32.2715H389.978V40.1515H395.538L400.178 32.2715H404.298Z" fill="white"/>
<path d="M418.76 52.6315C415.587 52.6315 413 51.6315 411 49.6315C409.027 47.6048 408.04 45.1115 408.04 42.1515C408.04 39.1915 409.027 36.7115 411 34.7115C413 32.7115 415.587 31.7115 418.76 31.7115C421.88 31.7115 424.414 32.7115 426.36 34.7115C428.334 36.7115 429.32 39.1915 429.32 42.1515C429.32 45.1115 428.334 47.6048 426.36 49.6315C424.387 51.6315 421.854 52.6315 418.76 52.6315ZM418.76 48.9915C420.734 48.9915 422.347 48.3248 423.6 46.9915C424.88 45.6582 425.52 44.0448 425.52 42.1515C425.52 40.2315 424.88 38.6182 423.6 37.3115C422.347 36.0048 420.734 35.3515 418.76 35.3515C416.734 35.3515 415.08 36.0048 413.8 37.3115C412.52 38.6182 411.88 40.2315 411.88 42.1515C411.88 44.0715 412.52 45.6982 413.8 47.0315C415.08 48.3382 416.734 48.9915 418.76 48.9915Z" fill="white"/>
<path d="M457.512 32.2715V52.0715H453.712V36.6315L447.032 52.0715H444.272L437.592 36.6315V52.0715H433.792V32.2715H439.592L445.632 46.5115L451.712 32.2715H457.512Z" fill="white"/>
<path d="M479.343 35.1515V32.2715H483.103V52.0715H479.343V48.9915H479.183C477.503 51.3915 475.129 52.6048 472.063 52.6315C469.183 52.6848 466.783 51.7248 464.863 49.7515C462.969 47.7782 462.023 45.2448 462.023 42.1515C462.023 39.0582 462.969 36.5382 464.863 34.5915C466.756 32.6448 469.169 31.6848 472.103 31.7115C475.143 31.7382 477.503 32.8848 479.183 35.1515H479.343ZM472.623 48.9515C474.596 48.9515 476.196 48.2982 477.423 46.9915C478.676 45.6848 479.303 44.0715 479.303 42.1515C479.303 40.2315 478.676 38.6182 477.423 37.3115C476.196 36.0048 474.596 35.3515 472.623 35.3515C470.596 35.3515 468.956 36.0048 467.703 37.3115C466.449 38.6182 465.823 40.2315 465.823 42.1515C465.823 44.0715 466.449 45.6848 467.703 46.9915C468.956 48.2982 470.596 48.9515 472.623 48.9515Z" fill="white"/>
<path d="M503.983 40.1115V32.2715H507.783V52.0715H503.983V43.7915H492.863V52.0715H489.063V32.2715H492.863V40.1115H503.983Z" fill="white"/>
<path d="M532.209 32.2715V48.3915H535.569V57.0715H531.849V52.0715H515.529V57.0715H511.809V48.3915H512.049C512.502 48.3915 512.849 48.3782 513.089 48.3515C513.355 48.2982 513.675 48.1782 514.049 47.9915C514.449 47.7782 514.755 47.4048 514.969 46.8715C515.209 46.3382 515.355 45.6448 515.409 44.7915C515.489 43.7782 515.529 39.6048 515.529 32.2715H532.209ZM518.289 48.3915H528.409V35.9515H519.249C519.249 39.6848 519.195 42.5115 519.089 44.4315C519.009 45.9515 518.742 47.2715 518.289 48.3915Z" fill="white"/>
<path d="M547.903 31.7115C551.13 31.7115 553.69 32.8448 555.583 35.1115C557.503 37.3782 558.33 40.1782 558.063 43.5115H541.703C541.836 45.0848 542.503 46.3915 543.703 47.4315C544.903 48.4715 546.383 48.9915 548.143 48.9915C549.423 48.9915 550.556 48.7115 551.543 48.1515C552.53 47.5915 553.25 46.8448 553.703 45.9115H557.663C556.996 47.9915 555.796 49.6315 554.063 50.8315C552.33 52.0315 550.303 52.6315 547.983 52.6315C544.89 52.6315 542.396 51.6315 540.503 49.6315C538.61 47.6048 537.663 45.1248 537.663 42.1915C537.663 39.2315 538.623 36.7515 540.543 34.7515C542.463 32.7248 544.916 31.7115 547.903 31.7115ZM547.823 35.3515C546.276 35.3515 544.956 35.8048 543.863 36.7115C542.77 37.5915 542.076 38.7382 541.783 40.1515H553.943C553.65 38.7115 552.943 37.5515 551.823 36.6715C550.73 35.7915 549.396 35.3515 547.823 35.3515Z" fill="white"/>
<path d="M563.089 43.0715L562.849 25.2715H566.969L566.729 43.0715H563.089ZM562.569 47.2715H567.169V52.0715H562.569V47.2715Z" fill="white"/>
<rect x="259" y="82.4043" width="484.143" height="80.0223" rx="21.3393" transform="rotate(-4.31238 259 82.4043)" fill="#FF991F"/>
<path d="M308.617 130.881L304.269 131.209L300.7 124.298L288.016 125.254L285.562 132.619L281.255 132.944L290.807 105.348L294.995 105.032L308.617 130.881ZM293.19 109.821L289.328 121.384L298.821 120.669L293.19 109.821Z" fill="white"/>
<path d="M328.817 109.501L324.865 117.742C326.258 117.771 327.358 118.169 328.164 118.937C328.969 119.679 329.427 120.781 329.537 122.243L330.066 129.263L326.277 129.549L325.796 123.167C325.7 121.891 324.987 121.303 323.657 121.403L315.401 122.026L316.026 130.322L312.237 130.608L310.748 110.864L314.537 110.578L315.13 118.436L320.674 118.018L324.708 109.811L328.817 109.501Z" fill="white"/>
<path d="M349.505 107.941L349.782 111.611L342.801 112.137L344.014 128.212L340.224 128.497L339.012 112.423L332.032 112.949L331.755 109.28L349.505 107.941Z" fill="white"/>
<path d="M363.62 123.564L368.631 106.499L372.5 106.207L365.525 129.678C365.015 131.428 364.27 132.728 363.292 133.577C362.341 134.451 361.028 134.951 359.353 135.078L354.686 135.43L354.401 131.64L359.067 131.288C359.918 131.224 360.557 131.002 360.983 130.622C361.411 130.269 361.753 129.669 362.01 128.82L362.044 128.737L351.399 107.798L355.588 107.483L363.62 123.564Z" fill="white"/>
<path d="M391.635 107.653L391.418 104.781L395.167 104.498L396.656 124.242L392.907 124.525L392.675 121.453L392.516 121.465C391.021 123.985 388.746 125.373 385.69 125.631C382.822 125.9 380.356 125.123 378.293 123.3C376.257 121.475 375.123 119.02 374.89 115.935C374.657 112.851 375.412 110.267 377.153 108.183C378.895 106.1 381.229 104.961 384.156 104.767C387.19 104.565 389.629 105.531 391.475 107.665L391.635 107.653ZM385.971 121.919C387.939 121.77 389.485 120.999 390.61 119.603C391.762 118.206 392.265 116.55 392.121 114.636C391.977 112.721 391.23 111.16 389.882 109.951C388.561 108.74 386.916 108.209 384.949 108.357C382.928 108.51 381.341 109.285 380.19 110.682C379.038 112.079 378.535 113.735 378.679 115.649C378.824 117.564 379.57 119.126 380.918 120.334C382.266 121.543 383.95 122.071 385.971 121.919Z" fill="white"/>
<path d="M419.862 102.636L421.351 122.38L417.562 122.666L416.35 106.591L407.056 107.292C407.355 111.254 407.524 114.21 407.564 116.159C407.589 117.548 407.453 118.761 407.157 119.8C406.859 120.812 406.515 121.573 406.126 122.084C405.734 122.568 405.19 122.97 404.492 123.29C403.794 123.61 403.246 123.799 402.85 123.855C402.479 123.91 401.962 123.962 401.297 124.012L400.659 124.061L400.373 120.271L400.772 120.241C401.224 120.207 401.569 120.168 401.806 120.123C402.068 120.05 402.378 119.906 402.736 119.692C403.119 119.449 403.397 119.054 403.569 118.506C403.769 117.956 403.863 117.254 403.852 116.399C403.855 115.382 403.581 111.218 403.03 103.905L419.862 102.636Z" fill="white"/>
<path d="M437.52 107.803C439.381 107.662 440.999 108.196 442.374 109.402C443.773 110.58 444.541 112.074 444.677 113.882C444.817 115.743 444.285 117.374 443.081 118.776C441.902 120.175 440.383 120.945 438.521 121.085L427.313 121.93L425.824 102.186L429.614 101.901L430.101 108.362L437.52 107.803ZM438.245 117.415C439.042 117.355 439.698 117.012 440.213 116.385C440.727 115.757 440.952 115.018 440.888 114.168C440.828 113.37 440.497 112.713 439.897 112.196C439.294 111.654 438.594 111.412 437.796 111.472L430.378 112.032L430.826 117.975L438.245 117.415Z" fill="white"/>
<path d="M463.123 107.236L462.533 99.4182L466.322 99.1324L467.811 118.876L464.022 119.162L463.399 110.906L452.311 111.742L452.933 119.998L449.144 120.284L447.655 100.54L451.445 100.254L452.034 108.072L463.123 107.236Z" fill="white"/>
<path d="M476.568 104.858L483.189 104.359C485.05 104.219 486.668 104.752 488.043 105.958C489.442 107.137 490.21 108.63 490.346 110.438C490.486 112.299 489.954 113.931 488.75 115.332C487.571 116.731 486.052 117.501 484.19 117.641L473.78 118.426L472.291 98.6823L476.08 98.3966L476.568 104.858ZM493.564 116.934L492.075 97.1905L495.864 96.9047L497.353 116.649L493.564 116.934ZM477.292 114.471L483.914 113.972C484.711 113.912 485.367 113.568 485.882 112.941C486.396 112.314 486.621 111.575 486.557 110.724C486.497 109.926 486.166 109.269 485.566 108.753C484.963 108.21 484.263 107.968 483.465 108.029L476.844 108.528L477.292 114.471Z" fill="white"/>
<path d="M510.532 95.2371C513.75 94.9944 516.388 95.9321 518.446 98.0499C520.531 100.166 521.566 102.896 521.551 106.24L505.237 107.47C505.488 109.029 506.251 110.282 507.526 111.228C508.801 112.175 510.316 112.582 512.071 112.45C513.347 112.354 514.456 111.989 515.398 111.357C516.34 110.724 517.002 109.926 517.384 108.961L521.332 108.663C520.824 110.787 519.751 112.513 518.113 113.84C516.474 115.167 514.499 115.917 512.185 116.092C509.101 116.324 506.539 115.515 504.501 113.663C502.46 111.784 501.33 109.382 501.109 106.457C500.887 103.506 501.658 100.961 503.422 98.8219C505.184 96.6566 507.554 95.4616 510.532 95.2371ZM510.726 98.8728C509.184 98.9891 507.902 99.5404 506.88 100.527C505.856 101.486 505.251 102.682 505.064 104.113L517.19 103.199C516.789 101.785 515.997 100.682 514.814 99.8882C513.658 99.093 512.295 98.7545 510.726 98.8728Z" fill="white"/>
<path d="M551.388 102.145L551.4 102.304C552.441 102.627 553.246 103.194 553.815 104.007C554.384 104.82 554.706 105.718 554.78 106.702C554.895 108.218 554.449 109.575 553.443 110.774C552.461 111.945 551.04 112.6 549.178 112.741L537.053 113.655L535.564 93.9111L546.972 93.0508C548.86 92.9085 550.361 93.3167 551.477 94.2756C552.592 95.2344 553.205 96.4451 553.315 97.9076C553.455 99.769 552.813 101.181 551.388 102.145ZM547.089 96.7324L539.63 97.2949L539.961 101.682L547.42 101.12C548.138 101.066 548.68 100.811 549.047 100.355C549.438 99.8713 549.611 99.3235 549.565 98.7119C549.521 98.1269 549.283 97.6367 548.852 97.2413C548.421 96.8459 547.833 96.6763 547.089 96.7324ZM540.565 109.7L548.702 109.086C549.447 109.03 550.016 108.773 550.409 108.316C550.801 107.831 550.973 107.284 550.927 106.672C550.883 106.087 550.632 105.598 550.175 105.204C549.717 104.811 549.116 104.642 548.371 104.699L540.235 105.312L540.565 109.7Z" fill="white"/>
<path d="M574.502 93.863L574.286 90.9911L578.035 90.7084L579.524 110.452L575.775 110.735L575.543 107.664L575.383 107.676C573.889 110.195 571.613 111.584 568.557 111.841C565.689 112.111 563.224 111.334 561.161 109.51C559.125 107.685 557.99 105.23 557.758 102.146C557.525 99.061 558.279 96.4769 560.021 94.3934C561.763 92.3099 564.097 91.1711 567.024 90.9771C570.057 90.7751 572.497 91.7411 574.343 93.875L574.502 93.863ZM568.839 108.129C570.807 107.981 572.353 107.209 573.478 105.814C574.629 104.417 575.133 102.761 574.989 100.846C574.844 98.9316 574.098 97.37 572.75 96.1613C571.429 94.9505 569.784 94.4194 567.816 94.5677C565.795 94.7201 564.209 95.4949 563.058 96.8921C561.906 98.2894 561.402 99.9452 561.547 101.86C561.691 103.774 562.437 105.336 563.785 106.545C565.134 107.753 566.818 108.282 568.839 108.129Z" fill="white"/>
<path d="M602.047 88.8977L598.096 97.1382C599.488 97.1669 600.588 97.5653 601.395 98.3335C602.199 99.0751 602.657 100.177 602.767 101.64L603.297 108.66L599.507 108.945L599.026 102.564C598.93 101.287 598.217 100.699 596.887 100.799L588.631 101.422L589.256 109.718L585.467 110.004L583.978 90.2602L587.768 89.9745L588.36 97.8322L593.904 97.4141L597.939 89.2075L602.047 88.8977Z" fill="white"/>
<path d="M623.306 90.1828L623.089 87.311L626.839 87.0282L628.328 106.772L624.578 107.055L624.347 103.984L624.187 103.996C622.692 106.515 620.417 107.904 617.361 108.161C614.493 108.43 612.028 107.654 609.965 105.83C607.929 104.005 606.794 101.55 606.561 98.4654C606.329 95.3808 607.083 92.7967 608.825 90.7132C610.567 88.6297 612.901 87.4909 615.828 87.297C618.861 87.095 621.301 88.0609 623.146 90.1948L623.306 90.1828ZM617.643 104.449C619.61 104.301 621.157 103.529 622.282 102.134C623.433 100.736 623.937 99.0806 623.793 97.166C623.648 95.2514 622.902 93.6898 621.554 92.4811C620.232 91.2703 618.588 90.7392 616.62 90.8875C614.599 91.0399 613.013 91.8147 611.861 93.212C610.71 94.6092 610.206 96.2651 610.351 98.1796C610.495 100.094 611.241 101.656 612.589 102.865C613.937 104.073 615.622 104.601 617.643 104.449Z" fill="white"/>
<path d="M648.25 93.276L647.66 85.4582L651.449 85.1724L652.938 104.916L649.149 105.202L648.526 96.9455L637.438 97.7817L638.06 106.038L634.271 106.324L632.782 86.5801L636.571 86.2943L637.161 94.1121L648.25 93.276Z" fill="white"/>
<path d="M676.99 90.4669L673.041 90.7647C672.525 89.6001 671.693 88.6734 670.545 87.9845C669.423 87.2936 668.131 87.0032 666.669 87.1135C664.674 87.2639 663.101 88.0377 661.95 89.4349C660.825 90.8301 660.335 92.485 660.479 94.3996C660.623 96.3141 661.357 97.8901 662.681 99.1274C664.029 100.336 665.7 100.865 667.694 100.715C669.13 100.607 670.364 100.126 671.396 99.2724C672.455 98.4171 673.136 97.3362 673.438 96.0297L677.387 95.7319C677.081 98.0549 676.066 100.03 674.344 101.658C672.619 103.258 670.481 104.155 667.928 104.348C664.843 104.58 662.255 103.773 660.164 101.925C658.07 100.05 656.912 97.6369 656.69 94.6853C656.467 91.7337 657.251 89.1875 659.042 87.0468C660.833 84.9061 663.27 83.7194 666.355 83.4868C668.908 83.2943 671.157 83.8602 673.102 85.1843C675.045 86.4819 676.341 88.2427 676.99 90.4669Z" fill="white"/>
<path d="M685.604 97.0779L695.567 81.8456L699.356 81.5599L700.845 101.304L697.056 101.59L695.973 87.2303L686.007 102.423L682.218 102.708L680.729 82.9645L684.518 82.6787L685.604 97.0779Z" fill="white"/>
<path d="M710.201 95.2231L720.164 79.9908L723.953 79.7051L725.442 99.449L721.653 99.7348L720.57 85.3755L710.604 100.568L706.815 100.854L705.326 81.1097L709.115 80.824L710.201 95.2231Z" fill="white"/>
</svg>
