<svg width="424" height="93" viewBox="0 0 424 93" fill="none" xmlns="http://www.w3.org/2000/svg">
<rect y="0.675781" width="333.288" height="45.2067" rx="12.0551" fill="#FF991F"/>
<path d="M24.6484 15.1803V30.3203H22.4565V17.327H13.8696V30.3203H11.6777V15.1803H24.6484ZM34.5314 18.8184C36.1885 18.8033 37.5518 19.3457 38.6214 20.4454C39.691 21.5451 40.2258 22.9687 40.2258 24.7162C40.2258 26.4637 39.6835 27.8949 38.5988 29.0097C37.5293 30.1245 36.181 30.6668 34.554 30.6367C32.8215 30.6216 31.4808 29.9362 30.5317 28.5803H30.4413V34.8397H28.3172V19.1348H30.4413V20.7618H30.5543C30.9761 20.1742 31.526 19.7072 32.2039 19.3607C32.8969 19.0143 33.6727 18.8335 34.5314 18.8184ZM34.2376 28.5577C35.3825 28.5577 36.309 28.1887 37.0171 27.4505C37.7251 26.7123 38.0791 25.8009 38.0791 24.7162C38.0791 23.6316 37.7251 22.7202 37.0171 21.982C36.309 21.2438 35.3825 20.8747 34.2376 20.8747C33.1228 20.8747 32.2114 21.2438 31.5034 21.982C30.8104 22.7202 30.4639 23.6316 30.4639 24.7162C30.4639 25.8009 30.8104 26.7123 31.5034 27.4505C32.2114 28.1887 33.1228 28.5577 34.2376 28.5577ZM44.9062 27.2923L51.1656 19.1348H53.3123V30.3203H51.1656V22.1854L44.9062 30.3203H42.7595V19.1348H44.9062V27.2923ZM67.4757 23.2022H65.2386C64.9976 22.5243 64.5682 21.9669 63.9506 21.5301C63.348 21.0932 62.6324 20.8747 61.8039 20.8747C60.674 20.8747 59.7551 21.2438 59.047 21.982C58.354 22.7202 58.0075 23.6316 58.0075 24.7162C58.0075 25.8009 58.354 26.7198 59.047 27.4731C59.7551 28.2113 60.674 28.5803 61.8039 28.5803C62.6173 28.5803 63.3329 28.3619 63.9506 27.925C64.5833 27.4881 65.0126 26.9082 65.2386 26.1851H67.4757C67.2045 27.4806 66.5492 28.5502 65.5098 29.3938C64.4703 30.2224 63.2275 30.6367 61.7813 30.6367C60.0337 30.6367 58.6101 30.0717 57.5104 28.9419C56.4107 27.797 55.8608 26.3884 55.8608 24.7162C55.8608 23.0441 56.4107 21.643 57.5104 20.5132C58.6101 19.3833 60.0337 18.8184 61.7813 18.8184C63.2275 18.8184 64.4703 19.2327 65.5098 20.0612C66.5492 20.8747 67.2045 21.9217 67.4757 23.2022ZM75.3215 30.6367C73.5288 30.6367 72.0675 30.0717 70.9376 28.9419C69.8228 27.797 69.2654 26.3884 69.2654 24.7162C69.2654 23.0441 69.8228 21.643 70.9376 20.5132C72.0675 19.3833 73.5288 18.8184 75.3215 18.8184C77.084 18.8184 78.5152 19.3833 79.6149 20.5132C80.7297 21.643 81.2871 23.0441 81.2871 24.7162C81.2871 26.3884 80.7297 27.797 79.6149 28.9419C78.5001 30.0717 77.069 30.6367 75.3215 30.6367ZM75.3215 28.5803C76.4362 28.5803 77.3477 28.2037 78.0557 27.4505C78.7788 26.6973 79.1404 25.7858 79.1404 24.7162C79.1404 23.6316 78.7788 22.7202 78.0557 21.982C77.3477 21.2438 76.4362 20.8747 75.3215 20.8747C74.1765 20.8747 73.2425 21.2438 72.5194 21.982C71.7963 22.7202 71.4348 23.6316 71.4348 24.7162C71.4348 25.8009 71.7963 26.7198 72.5194 27.4731C73.2425 28.2113 74.1765 28.5803 75.3215 28.5803ZM88.9856 18.8184C90.8084 18.8184 92.2546 19.4587 93.3242 20.7392C94.4089 22.0197 94.8759 23.6015 94.7252 25.4845H85.483C85.5584 26.3734 85.935 27.1115 86.6129 27.6991C87.2908 28.2866 88.1269 28.5803 89.1212 28.5803C89.8443 28.5803 90.4845 28.4222 91.0419 28.1058C91.5993 27.7894 92.0061 27.3676 92.2622 26.8404H94.4993C94.1227 28.0154 93.4447 28.9419 92.4655 29.6198C91.4863 30.2977 90.3414 30.6367 89.0308 30.6367C87.2833 30.6367 85.8747 30.0717 84.8051 28.9419C83.7355 27.797 83.2007 26.396 83.2007 24.7388C83.2007 23.0667 83.7431 21.6656 84.8277 20.5358C85.9124 19.3909 87.2983 18.8184 88.9856 18.8184ZM88.9404 20.8747C88.0666 20.8747 87.3209 21.1308 86.7033 21.643C86.0856 22.1402 85.694 22.788 85.5282 23.5864H92.3977C92.232 22.7729 91.8328 22.1176 91.2001 21.6204C90.5824 21.1233 89.8292 20.8747 88.9404 20.8747ZM107.57 19.1348V28.2414H109.468V33.1449H107.366V30.3203H98.1467V33.1449H96.0452V28.2414H96.1808C96.4369 28.2414 96.6327 28.2339 96.7683 28.2188C96.919 28.1887 97.0997 28.1209 97.3106 28.0154C97.5366 27.8949 97.7098 27.684 97.8304 27.3827C97.9659 27.0814 98.0488 26.6897 98.0789 26.2076C98.1241 25.6352 98.1467 23.2776 98.1467 19.1348H107.57ZM99.7059 28.2414H105.423V21.2137H100.248C100.248 23.3228 100.218 24.9196 100.158 26.0043C100.113 26.863 99.962 27.6087 99.7059 28.2414ZM113.83 27.2923L120.089 19.1348H122.236V30.3203H120.089V22.1854L113.83 30.3203H111.683V19.1348H113.83V27.2923ZM134.047 23.5638V19.1348H136.193V30.3203H134.047V25.6427H127.765V30.3203H125.618V19.1348H127.765V23.5638H134.047ZM149.517 19.1348V30.3203H147.371V26.411H142.535C141.782 26.411 141.405 26.7575 141.405 27.4505V30.3203H139.258V27.1115C139.258 25.9515 139.695 25.2284 140.569 24.9422V24.8744C139.725 24.3622 139.303 23.5563 139.303 22.4565C139.303 21.5527 139.635 20.7768 140.298 20.129C140.961 19.4662 141.88 19.1348 143.055 19.1348H149.517ZM143.168 24.3321H147.371V21.2137H143.055C142.557 21.2137 142.166 21.3719 141.88 21.6882C141.593 21.9895 141.45 22.3511 141.45 22.7729C141.45 23.2098 141.608 23.5789 141.925 23.8802C142.256 24.1814 142.67 24.3321 143.168 24.3321ZM159.784 17.327H156.394C155.867 17.327 155.422 17.1538 155.061 16.8073C154.714 16.4457 154.541 16.0013 154.541 15.474V14.0504H156.349V15.1125C156.349 15.2782 156.402 15.4213 156.507 15.5418C156.628 15.6473 156.763 15.7 156.914 15.7H159.264C159.415 15.7 159.543 15.6473 159.648 15.5418C159.769 15.4213 159.829 15.2782 159.829 15.1125V14.0504H161.637V15.474C161.637 16.0013 161.456 16.4457 161.094 16.8073C160.748 17.1538 160.311 17.327 159.784 17.327ZM155.038 27.2923L161.298 19.1348H163.444V30.3203H161.298V22.1854L155.038 30.3203H152.892V19.1348H155.038V27.2923ZM177.608 23.2022H175.371C175.13 22.5243 174.7 21.9669 174.083 21.5301C173.48 21.0932 172.764 20.8747 171.936 20.8747C170.806 20.8747 169.887 21.2438 169.179 21.982C168.486 22.7202 168.14 23.6316 168.14 24.7162C168.14 25.8009 168.486 26.7198 169.179 27.4731C169.887 28.2113 170.806 28.5803 171.936 28.5803C172.749 28.5803 173.465 28.3619 174.083 27.925C174.715 27.4881 175.145 26.9082 175.371 26.1851H177.608C177.337 27.4806 176.681 28.5502 175.642 29.3938C174.602 30.2224 173.359 30.6367 171.913 30.6367C170.166 30.6367 168.742 30.0717 167.642 28.9419C166.543 27.797 165.993 26.3884 165.993 24.7162C165.993 23.0441 166.543 21.643 167.642 20.5132C168.742 19.3833 170.166 18.8184 171.913 18.8184C173.359 18.8184 174.602 19.2327 175.642 20.0612C176.681 20.8747 177.337 21.9217 177.608 23.2022ZM190.042 19.1348V30.3203H187.895V26.411H183.059C182.306 26.411 181.929 26.7575 181.929 27.4505V30.3203H179.783V27.1115C179.783 25.9515 180.22 25.2284 181.093 24.9422V24.8744C180.25 24.3622 179.828 23.5563 179.828 22.4565C179.828 21.5527 180.159 20.7768 180.822 20.129C181.485 19.4662 182.404 19.1348 183.579 19.1348H190.042ZM183.692 24.3321H187.895V21.2137H183.579C183.082 21.2137 182.69 21.3719 182.404 21.6882C182.118 21.9895 181.975 22.3511 181.975 22.7729C181.975 23.2098 182.133 23.5789 182.449 23.8802C182.781 24.1814 183.195 24.3321 183.692 24.3321ZM209.422 19.1348L206.846 23.609C207.63 23.6843 208.232 23.9555 208.654 24.4225C209.076 24.8744 209.287 25.5147 209.287 26.3432V30.3203H207.14V26.7048C207.14 25.9817 206.763 25.6201 206.01 25.6201H201.332V30.3203H199.186V19.1348H201.332V23.5864H204.473L207.095 19.1348H209.422ZM228.399 19.1348L225.822 23.609C226.606 23.6843 227.208 23.9555 227.63 24.4225C228.052 24.8744 228.263 25.5147 228.263 26.3432V30.3203H226.116V26.7048C226.116 25.9817 225.74 25.6201 224.986 25.6201H220.309V30.3203H218.162V19.1348H220.309V23.5864H223.45L226.071 19.1348H228.399ZM236.569 30.6367C234.776 30.6367 233.315 30.0717 232.185 28.9419C231.07 27.797 230.513 26.3884 230.513 24.7162C230.513 23.0441 231.07 21.643 232.185 20.5132C233.315 19.3833 234.776 18.8184 236.569 18.8184C238.331 18.8184 239.762 19.3833 240.862 20.5132C241.977 21.643 242.534 23.0441 242.534 24.7162C242.534 26.3884 241.977 27.797 240.862 28.9419C239.747 30.0717 238.316 30.6367 236.569 30.6367ZM236.569 28.5803C237.683 28.5803 238.595 28.2037 239.303 27.4505C240.026 26.6973 240.388 25.7858 240.388 24.7162C240.388 23.6316 240.026 22.7202 239.303 21.982C238.595 21.2438 237.683 20.8747 236.569 20.8747C235.424 20.8747 234.49 21.2438 233.767 21.982C233.043 22.7202 232.682 23.6316 232.682 24.7162C232.682 25.8009 233.043 26.7198 233.767 27.4731C234.49 28.2113 235.424 28.5803 236.569 28.5803ZM258.461 19.1348V30.3203H256.314V21.5978L252.54 30.3203H250.981L247.207 21.5978V30.3203H245.061V19.1348H248.337L251.749 27.1793L255.184 19.1348H258.461ZM270.793 20.7618V19.1348H272.917V30.3203H270.793V28.5803H270.703C269.754 29.9362 268.413 30.6216 266.681 30.6367C265.054 30.6668 263.698 30.1245 262.613 29.0097C261.543 27.8949 261.009 26.4637 261.009 24.7162C261.009 22.9687 261.543 21.5451 262.613 20.4454C263.683 19.3457 265.046 18.8033 266.703 18.8184C268.421 18.8335 269.754 19.4813 270.703 20.7618H270.793ZM266.997 28.5577C268.112 28.5577 269.016 28.1887 269.709 27.4505C270.417 26.7123 270.771 25.8009 270.771 24.7162C270.771 23.6316 270.417 22.7202 269.709 21.982C269.016 21.2438 268.112 20.8747 266.997 20.8747C265.852 20.8747 264.926 21.2438 264.217 21.982C263.509 22.7202 263.155 23.6316 263.155 24.7162C263.155 25.8009 263.509 26.7123 264.217 27.4505C264.926 28.1887 265.852 28.5577 266.997 28.5577ZM284.713 23.5638V19.1348H286.86V30.3203H284.713V25.6427H278.431V30.3203H276.284V19.1348H278.431V23.5638H284.713ZM300.659 19.1348V28.2414H302.557V33.1449H300.455V30.3203H291.236V33.1449H289.134V28.2414H289.27C289.526 28.2414 289.722 28.2339 289.857 28.2188C290.008 28.1887 290.189 28.1209 290.399 28.0154C290.625 27.8949 290.799 27.684 290.919 27.3827C291.055 27.0814 291.138 26.6897 291.168 26.2076C291.213 25.6352 291.236 23.2776 291.236 19.1348H300.659ZM292.795 28.2414H298.512V21.2137H293.337C293.337 23.3228 293.307 24.9196 293.247 26.0043C293.201 26.863 293.051 27.6087 292.795 28.2414ZM309.525 18.8184C311.347 18.8184 312.794 19.4587 313.863 20.7392C314.948 22.0197 315.415 23.6015 315.264 25.4845H306.022C306.097 26.3734 306.474 27.1115 307.152 27.6991C307.83 28.2866 308.666 28.5803 309.66 28.5803C310.383 28.5803 311.024 28.4222 311.581 28.1058C312.138 27.7894 312.545 27.3676 312.801 26.8404H315.038C314.662 28.0154 313.984 28.9419 313.005 29.6198C312.025 30.2977 310.88 30.6367 309.57 30.6367C307.822 30.6367 306.414 30.0717 305.344 28.9419C304.275 27.797 303.74 26.396 303.74 24.7388C303.74 23.0667 304.282 21.6656 305.367 20.5358C306.451 19.3909 307.837 18.8184 309.525 18.8184ZM309.479 20.8747C308.606 20.8747 307.86 21.1308 307.242 21.643C306.625 22.1402 306.233 22.788 306.067 23.5864H312.937C312.771 22.7729 312.372 22.1176 311.739 21.6204C311.122 21.1233 310.368 20.8747 309.479 20.8747ZM318.104 25.236L317.968 15.1803H320.295L320.16 25.236H318.104ZM317.81 27.6087H320.408V30.3203H317.81V27.6087Z" fill="white"/>
<rect x="146.318" y="47.2871" width="274.288" height="45.2067" rx="12.0551" transform="rotate(-4.31238 146.318 47.2871)" fill="#FF991F"/>
<path d="M174.365 74.9014L171.909 75.0866L169.893 71.1823L162.727 71.7226L161.341 75.8835L158.908 76.067L164.304 60.4771L166.67 60.2987L174.365 74.9014ZM165.65 63.0042L163.469 69.5365L168.832 69.1321L165.65 63.0042ZM185.777 62.8236L183.545 67.4788C184.331 67.495 184.953 67.7201 185.408 68.1541C185.863 68.573 186.121 69.1956 186.184 70.0218L186.483 73.9876L184.342 74.149L184.07 70.5438C184.016 69.8227 183.613 69.4905 182.862 69.5471L178.198 69.8989L178.551 74.5857L176.41 74.7472L175.569 63.5933L177.71 63.4319L178.045 67.8709L181.177 67.6347L183.456 62.9986L185.777 62.8236ZM197.464 61.9422L197.62 64.0153L193.677 64.3126L194.362 73.3935L192.221 73.5549L191.537 64.4741L187.593 64.7714L187.437 62.6984L197.464 61.9422ZM205.438 70.768L208.269 61.1275L210.454 60.9627L206.514 74.222C206.226 75.2106 205.806 75.9448 205.253 76.4246C204.716 76.9183 203.974 77.2009 203.028 77.2722L200.391 77.4711L200.23 75.3304L202.866 75.1316C203.347 75.0954 203.708 74.97 203.948 74.7554C204.19 74.5559 204.384 74.2165 204.529 73.7372L204.548 73.6905L198.534 61.8615L200.9 61.6831L205.438 70.768ZM221.264 61.7791L221.142 60.1568L223.26 59.997L224.101 71.1509L221.983 71.3106L221.852 69.5756L221.762 69.5824C220.918 71.0057 219.632 71.79 217.906 71.9353C216.286 72.0877 214.893 71.6489 213.728 70.6188C212.577 69.5876 211.936 68.2007 211.805 66.4582C211.673 64.7156 212.1 63.2558 213.084 62.0788C214.067 60.9017 215.386 60.2584 217.04 60.1488C218.753 60.0347 220.131 60.5804 221.174 61.7859L221.264 61.7791ZM218.065 69.8385C219.177 69.7547 220.05 69.3187 220.686 68.5305C221.336 67.7412 221.621 66.8057 221.539 65.7241C221.458 64.6425 221.036 63.7603 220.274 63.0775C219.528 62.3935 218.599 62.0934 217.487 62.1773C216.346 62.2634 215.449 62.7011 214.799 63.4904C214.148 64.2797 213.864 65.2152 213.945 66.2967C214.027 67.3783 214.449 68.2605 215.21 68.9434C215.972 69.6262 216.923 69.9246 218.065 69.8385ZM237.211 58.945L238.052 70.0989L235.911 70.2603L235.227 61.1795L229.976 61.5754C230.145 63.8137 230.241 65.4834 230.263 66.5845C230.277 67.3691 230.201 68.0547 230.033 68.6414C229.865 69.2131 229.671 69.6432 229.451 69.9317C229.23 70.2052 228.922 70.4324 228.528 70.6132C228.133 70.794 227.824 70.9004 227.6 70.9324C227.391 70.9633 227.098 70.9929 226.723 71.0212L226.362 71.0484L226.201 68.9077L226.426 68.8907C226.682 68.8715 226.876 68.8493 227.01 68.824C227.158 68.7827 227.334 68.7015 227.536 68.5805C227.752 68.4433 227.909 68.22 228.007 67.9104C228.119 67.5998 228.172 67.203 228.166 66.72C228.168 66.1458 228.013 63.7932 227.702 59.6621L237.211 58.945ZM247.186 61.8639C248.238 61.7847 249.152 62.0859 249.928 62.7676C250.719 63.4331 251.152 64.2766 251.229 65.2981C251.309 66.3497 251.008 67.2713 250.327 68.0628C249.662 68.8533 248.803 69.2882 247.752 69.3675L241.42 69.8449L240.579 58.6911L242.72 58.5296L242.995 62.18L247.186 61.8639ZM247.596 67.2944C248.046 67.2604 248.417 67.0663 248.707 66.712C248.998 66.3578 249.125 65.9403 249.089 65.4596C249.055 65.0089 248.868 64.6377 248.529 64.3461C248.189 64.0394 247.793 63.903 247.342 63.937L243.151 64.253L243.404 67.6105L247.596 67.2944ZM261.65 61.5437L261.317 57.1273L263.457 56.9658L264.298 68.1197L262.158 68.2811L261.806 63.6168L255.542 64.0892L255.894 68.7535L253.753 68.9149L252.912 57.7611L255.053 57.5996L255.386 62.0161L261.65 61.5437ZM269.245 60.2005L272.986 59.9185C274.037 59.8392 274.951 60.1404 275.728 60.8221C276.518 61.4876 276.952 62.3312 277.029 63.3527C277.108 64.4042 276.808 65.3258 276.127 66.1173C275.462 66.9078 274.603 67.3427 273.551 67.422L267.67 67.8655L266.829 56.7116L268.97 56.5502L269.245 60.2005ZM278.847 67.0227L278.006 55.8688L280.146 55.7074L280.987 66.8612L278.847 67.0227ZM269.655 65.631L273.395 65.3489C273.846 65.3149 274.216 65.1208 274.507 64.7665C274.797 64.4123 274.925 63.9948 274.888 63.5141C274.854 63.0634 274.668 62.6922 274.329 62.4006C273.988 62.0939 273.593 61.9575 273.142 61.9915L269.401 62.2736L269.655 65.631ZM288.433 54.7652C290.25 54.6282 291.741 55.1579 292.904 56.3543C294.081 57.5496 294.666 59.0918 294.657 60.9809L285.441 61.6759C285.583 62.5565 286.014 63.2643 286.735 63.7992C287.455 64.334 288.311 64.5641 289.302 64.4893C290.023 64.435 290.65 64.2291 291.182 63.8717C291.714 63.5143 292.088 63.0631 292.303 62.5181L294.534 62.3499C294.247 63.5499 293.641 64.5248 292.715 65.2744C291.79 66.024 290.673 66.4481 289.367 66.5467C287.624 66.6781 286.177 66.2206 285.025 65.1744C283.873 64.1132 283.234 62.7563 283.109 61.1039C282.984 59.4365 283.419 57.9986 284.416 56.7904C285.411 55.5672 286.75 54.8921 288.433 54.7652ZM288.542 56.8192C287.671 56.8849 286.947 57.1963 286.369 57.7535C285.791 58.2957 285.449 58.9711 285.344 59.7797L292.194 59.2632C291.967 58.4644 291.52 57.841 290.852 57.3928C290.198 56.9435 289.429 56.7523 288.542 56.8192ZM311.513 58.6674L311.52 58.7576C312.108 58.9399 312.563 59.2606 312.884 59.7198C313.206 60.179 313.388 60.6865 313.43 61.2423C313.494 62.0985 313.242 62.8654 312.674 63.5427C312.12 64.2039 311.317 64.5742 310.265 64.6535L303.415 65.17L302.574 54.0162L309.018 53.5302C310.085 53.4498 310.933 53.6804 311.563 54.2221C312.193 54.7638 312.539 55.4477 312.602 56.2739C312.681 57.3255 312.318 58.1233 311.513 58.6674ZM309.085 55.61L304.871 55.9278L305.058 58.4064L309.271 58.0887C309.677 58.0581 309.983 57.9141 310.191 57.6568C310.412 57.3833 310.509 57.0738 310.483 56.7283C310.458 56.3978 310.324 56.1209 310.081 55.8975C309.837 55.6741 309.505 55.5783 309.085 55.61ZM305.399 62.9356L309.996 62.5889C310.417 62.5572 310.738 62.4121 310.96 62.1536C311.181 61.8801 311.279 61.5706 311.253 61.2251C311.228 60.8947 311.086 60.6183 310.828 60.3961C310.569 60.1738 310.23 60.0786 309.809 60.1103L305.212 60.4569L305.399 62.9356ZM324.571 53.989L324.449 52.3666L326.567 52.2069L327.408 63.3608L325.29 63.5205L325.159 61.7855L325.069 61.7922C324.224 63.2156 322.939 63.9999 321.213 64.1452C319.592 64.2976 318.2 63.8588 317.034 62.8287C315.884 61.7975 315.243 60.4106 315.112 58.668C314.98 56.9255 315.406 55.4657 316.39 54.2886C317.374 53.1116 318.693 52.4683 320.346 52.3587C322.06 52.2446 323.438 52.7903 324.481 53.9958L324.571 53.989ZM321.372 62.0484C322.483 61.9646 323.357 61.5285 323.992 60.7404C324.643 59.951 324.927 59.0156 324.846 57.934C324.764 56.8524 324.343 55.9702 323.581 55.2874C322.835 54.6034 321.906 54.3033 320.794 54.3871C319.652 54.4732 318.756 54.9109 318.106 55.7003C317.455 56.4896 317.171 57.425 317.252 58.5066C317.334 59.5882 317.755 60.4704 318.517 61.1533C319.278 61.8361 320.23 62.1345 321.372 62.0484ZM340.132 51.184L337.9 55.8392C338.686 55.8555 339.308 56.0805 339.763 56.5145C340.218 56.9334 340.476 57.556 340.539 58.3822L340.838 62.3481L338.697 62.5095L338.425 58.9042C338.371 58.1831 337.968 57.8509 337.217 57.9076L332.553 58.2593L332.906 62.9462L330.765 63.1076L329.924 51.9537L332.065 51.7923L332.4 56.2313L335.532 55.9951L337.811 51.359L340.132 51.184ZM352.142 51.91L352.019 50.2876L354.137 50.1279L354.978 61.2817L352.86 61.4415L352.73 59.7064L352.639 59.7132C351.795 61.1366 350.51 61.9209 348.783 62.0662C347.163 62.2186 345.77 61.7797 344.605 60.7496C343.454 59.7184 342.814 58.3316 342.682 56.589C342.551 54.8464 342.977 53.3866 343.961 52.2096C344.945 51.0326 346.263 50.3893 347.917 50.2797C349.631 50.1656 351.009 50.7113 352.051 51.9168L352.142 51.91ZM348.942 59.9693C350.054 59.8855 350.927 59.4495 351.563 58.6613C352.214 57.872 352.498 56.9365 352.416 55.855C352.335 54.7734 351.913 53.8912 351.152 53.2083C350.405 52.5243 349.476 52.2243 348.365 52.3081C347.223 52.3942 346.327 52.8319 345.676 53.6212C345.026 54.4105 344.741 55.346 344.823 56.4276C344.904 57.5092 345.326 58.3914 346.087 59.0742C346.849 59.7571 347.801 60.0554 348.942 59.9693ZM366.233 53.6574L365.9 49.2409L368.04 49.0795L368.882 60.2333L366.741 60.3948L366.389 55.7304L360.125 56.2028L360.477 60.8671L358.336 61.0286L357.495 49.8747L359.636 49.7133L359.969 54.1297L366.233 53.6574ZM382.469 52.0705L380.238 52.2387C379.947 51.5808 379.477 51.0573 378.828 50.6681C378.194 50.2778 377.464 50.1137 376.638 50.176C375.512 50.261 374.623 50.6981 373.972 51.4875C373.337 52.2757 373.06 53.2105 373.142 54.2921C373.223 55.3737 373.638 56.264 374.385 56.963C375.147 57.6458 376.091 57.9448 377.218 57.8598C378.029 57.7987 378.726 57.527 379.309 57.0449C379.907 56.5617 380.292 55.9511 380.463 55.213L382.693 55.0448C382.52 56.3571 381.947 57.473 380.974 58.3924C380 59.2967 378.792 59.8033 377.35 59.912C375.607 60.0434 374.145 59.5872 372.964 58.5432C371.781 57.4842 371.127 56.121 371.001 54.4535C370.875 52.7861 371.318 51.3477 372.33 50.1384C373.341 48.929 374.719 48.2586 376.461 48.1272C377.903 48.0185 379.174 48.3381 380.272 49.0862C381.37 49.8192 382.102 50.814 382.469 52.0705ZM387.335 55.8052L392.964 47.2001L395.104 47.0386L395.945 58.1925L393.805 58.3539L393.193 50.242L387.563 58.8246L385.423 58.986L384.581 47.8322L386.722 47.6707L387.335 55.8052ZM401.231 54.7574L406.859 46.1522L409 45.9908L409.841 57.1447L407.7 57.3061L407.088 49.1942L401.458 57.7768L399.318 57.9382L398.477 46.7843L400.617 46.6229L401.231 54.7574Z" fill="white"/>
</svg>
