<svg width="187" height="53" viewBox="0 0 187 53" fill="none" xmlns="http://www.w3.org/2000/svg">
<path fill-rule="evenodd" clip-rule="evenodd" d="M184.565 0.560556C185.669 0.557212 186.567 1.44993 186.571 2.55449L186.625 20.5544C186.629 21.659 185.736 22.5571 184.631 22.5605C183.527 22.5638 182.629 21.6711 182.625 20.5665L182.585 7.31718C124.222 63.3742 55.9677 61.7187 1.17615 34.2135C0.188985 33.718 -0.209546 32.516 0.286009 31.5288C0.781564 30.5417 1.98355 30.1431 2.97072 30.6387C56.4801 57.5002 122.763 59.1117 179.665 4.57541L166.577 4.61504C165.472 4.61838 164.574 3.72567 164.571 2.6211C164.567 1.51654 165.46 0.6184 166.565 0.615055L184.565 0.560556Z" fill="white"/>
</svg>
