<svg width="191" height="117" viewBox="0 0 191 117" fill="none" xmlns="http://www.w3.org/2000/svg">
<path fill-rule="evenodd" clip-rule="evenodd" d="M11.7443 116.33C10.7785 116.866 9.56105 116.518 9.025 115.552L0.289517 99.8139C-0.246532 98.8481 0.101815 97.6306 1.06759 97.0946C2.03337 96.5585 3.25084 96.9069 3.78689 97.8727L10.2296 109.48C35.0492 31.9326 114.075 0.499999 188.541 0.5C189.646 0.5 190.541 1.39543 190.541 2.5C190.541 3.60457 189.646 4.5 188.541 4.5C114.966 4.5 38.2877 35.468 14.1249 110.434L25.5413 104.097C26.5071 103.561 27.7245 103.91 28.2606 104.875C28.7966 105.841 28.4483 107.059 27.4825 107.595L11.7443 116.33Z" fill="white"/>
</svg>
