<svg width="132" height="81" viewBox="0 0 132 81" fill="none" xmlns="http://www.w3.org/2000/svg">
<path fill-rule="evenodd" clip-rule="evenodd" d="M8.63822 80.422C7.97217 80.7917 7.13253 80.5514 6.76285 79.8854L0.738385 69.0314C0.3687 68.3654 0.608941 67.5257 1.275 67.156C1.94104 66.7864 2.78067 67.0266 3.15037 67.6926L7.59362 75.6978C24.7105 22.2167 79.2111 0.539063 130.567 0.539062C131.329 0.539062 131.946 1.1566 131.946 1.91837C131.946 2.68015 131.329 3.29768 130.567 3.29768C79.8254 3.29769 26.9439 24.6549 10.28 76.3556L18.1534 71.9855C18.8194 71.6158 19.659 71.8561 20.0287 72.5221C20.3984 73.1882 20.1582 74.0278 19.4921 74.3975L8.63822 80.422Z" fill="white"/>
</svg>
