<svg width="130" height="37" viewBox="0 0 130 37" fill="none" xmlns="http://www.w3.org/2000/svg">
<path fill-rule="evenodd" clip-rule="evenodd" d="M127.68 6.45828e-06C128.441 -0.00229981 129.061 0.613367 129.063 1.37514L129.101 13.7889C129.103 14.5507 128.487 15.1701 127.725 15.1724C126.964 15.1747 126.344 14.559 126.342 13.7972L126.314 4.65975C86.0635 43.3198 38.9916 42.1781 1.20416 23.209C0.523351 22.8672 0.248501 22.0383 0.590264 21.3575C0.932028 20.6767 1.76099 20.4018 2.44179 20.7436C39.345 39.2688 85.0576 40.3802 124.3 2.76887L115.274 2.7962C114.512 2.79851 113.893 2.18284 113.891 1.42107C113.888 0.659304 114.504 0.0398985 115.266 0.0375922L127.68 6.45828e-06Z" fill="white"/>
</svg>
