<svg width="100" height="21" viewBox="0 0 100 21" fill="none" xmlns="http://www.w3.org/2000/svg">
<path d="M83.3726 0.507223H81.765V1.3168C81.6246 4.33562 80.6949 5.4817 79.7168 6.68142C79.4747 6.97891 79.2326 7.29104 78.9759 7.65681V6.76433C78.9759 3.83817 79.2762 1.78986 79.7652 0.424316L77.0052 0.497471L74.2451 0.424316C74.7294 1.80936 75.0344 3.94059 75.0344 6.94478C75.0344 10.1684 74.7003 12.3874 74.1338 13.7725L77.349 13.6896H78.9759V12.5581C79.0228 10.7608 79.7282 9.0445 80.9564 7.73971C81.2227 7.41296 81.4987 7.07157 81.765 6.69117V7.45198C81.765 10.3781 81.4648 12.4216 80.9757 13.792L83.7357 13.7237L86.5007 13.792C86.0164 12.4118 85.7065 10.2806 85.7065 7.27641C85.7065 4.05275 86.0406 1.83375 86.612 0.448703L83.3726 0.507223Z" fill="#229821"/>
<path d="M93.4634 0C89.7446 0 86.8684 3.10661 86.8684 7.252C86.8684 11.3974 89.2314 13.987 93.3908 13.987C97.1095 13.987 100 10.9585 100 6.83258C100 2.7067 97.6664 0 93.4634 0ZM95.3519 7.37392C94.5577 9.90993 93.1729 12.3386 91.8413 12.3386C90.9842 12.3386 90.8389 10.978 90.8389 10.4659C90.8785 9.15655 91.1019 7.85943 91.5023 6.61312C92.2964 4.07712 93.6813 1.64841 95.008 1.64841C95.8699 1.64841 96.0104 3.00907 96.0104 3.52114C95.9699 4.83 95.7483 6.12677 95.3519 7.37392Z" fill="#229821"/>
<path d="M38.2575 12.7581C37.8896 10.9471 37.7271 9.09992 37.7732 7.25202C37.7732 4.02837 38.1025 1.80937 38.6739 0.424316L35.8702 0.502349L33.0376 0.424316C33.3808 1.45868 33.5971 2.53145 33.6816 3.61871C33.8196 4.58767 33.8811 5.56612 33.8656 6.54487C33.8656 9.95872 33.3523 11.3877 32.6163 11.3877C31.8803 11.3877 31.3767 9.95384 31.3767 6.54487C31.3631 5.53829 31.4279 4.53218 31.5704 3.5358C31.6593 2.47664 31.8739 1.43204 32.2096 0.424316L29.3721 0.502349H29.2849L26.4717 0.424316C27.0431 1.78986 27.3772 4.00886 27.3772 7.25202C27.3772 10.2562 27.0866 12.3874 26.5879 13.7676L29.6191 13.6847H31.5995C31.6963 13.6847 39.865 13.197 37.8362 15.5087C36.4998 17.0303 32.781 16.2597 31.6479 13.9822C30.0452 16.128 30.7667 20.9172 35.6572 20.9172C40.6398 20.9172 40.9836 13.6018 38.2671 12.7581" fill="#FF991F"/>
<path d="M55.5149 8.52491H61.4272L61.5192 5.92063C60.1376 6.59826 58.6986 7.14993 57.2194 7.56903V4.86721H57.3356C58.5558 4.86721 59.9067 6.1157 59.9067 6.1157V4.33075V2.79452C59.8728 2.85304 58.58 4.0235 57.447 4.0235H57.2194V1.40947C58.6986 1.82857 60.1376 2.38024 61.5192 3.05787L61.4272 0.502359H55.5052L52.8662 0.434082C53.3505 1.27779 53.4231 3.12615 53.4231 4.56484C53.4231 6.00354 53.3214 7.73972 52.7549 8.57368L55.5149 8.52491Z" fill="#FF991F"/>
<path d="M22.2455 0.507177H20.5992C20.5992 4.15024 19.6307 5.38411 18.58 6.69113C18.3282 7.013 18.0957 7.33488 17.8294 7.66651V6.72527C17.8294 3.79911 18.1296 1.75079 18.6187 0.385254L15.8587 0.458409L13.0938 0.385254C13.5781 1.7703 13.8879 3.90152 13.8879 6.90571C13.8879 10.1294 13.5538 12.3484 12.9824 13.7334L16.2025 13.6505H17.8488C17.8488 10.1781 18.7639 9.02718 19.8195 7.6909C20.0762 7.36902 20.3425 7.03251 20.5992 6.65699V7.41291C20.5992 10.3391 20.299 12.3825 19.8051 13.7529L22.5699 13.6846L25.3299 13.7529C24.8457 12.3728 24.5406 10.2415 24.5406 7.23734C24.5406 4.01369 24.8699 1.79469 25.4413 0.40964L22.2455 0.507177Z" fill="#FF991F"/>
<path d="M12.2022 13.7335C11.66 12.2049 11.372 10.5966 11.35 8.97358V4.89159C11.384 3.37611 11.6335 1.87337 12.0908 0.429194L9.05479 0.512101H3.2055L0.11136 0.424316C0.595575 1.80937 0.905479 3.94059 0.905479 6.94478C0.905479 10.1684 0.571373 12.3874 0 13.7725L2.80841 13.6993L5.63627 13.7725C5.29485 12.7393 5.07857 11.6684 4.99222 10.583C4.85672 9.61375 4.79521 8.6355 4.80822 7.65681C4.80822 4.24295 5.32153 2.81401 6.05753 2.81401C6.79354 2.81401 7.29709 4.24783 7.29709 7.65681C7.31071 8.66339 7.246 9.66949 7.10345 10.6659C7.01465 11.7234 6.80003 12.7665 6.46426 13.7725L9.30175 13.6993H9.38893L12.2022 13.7335Z" fill="#FF991F"/>
<path d="M60.2317 11.2463C56.7502 8.53961 53.2106 10.149 51.2253 11.5438C51.039 10.1424 50.9532 8.72931 50.9686 7.3155C50.9686 4.09185 51.3027 1.87284 51.8693 0.487793L49.0657 0.565826L46.233 0.487793C46.5762 1.52216 46.7925 2.59492 46.877 3.68218C47.015 4.65115 47.0765 5.62959 47.061 6.60834C47.061 10.0222 46.5478 11.4511 45.8117 11.4511C45.0757 11.4511 44.5721 10.0173 44.5721 6.60834C44.5573 5.60156 44.6237 4.59523 44.7707 3.59928C44.8564 2.5401 45.0694 1.4953 45.405 0.487793L42.5675 0.565826H42.4803L39.6719 0.487793C40.2384 1.85333 40.5726 4.07234 40.5726 7.3155C40.5726 10.3197 40.282 12.4509 39.7833 13.836L42.8145 13.753H53.6027C55.3265 13.8018 62.7738 13.3775 60.5658 16.1037C59.2196 17.7716 54.4211 16.5329 53.1185 14.4017C51.8354 16.6743 52.8135 21.0002 57.4765 21.0002C62.5898 20.9807 64.1587 14.2993 60.2317 11.2463Z" fill="#FF991F"/>
<path d="M69.262 0.497453C68.1822 0.497453 66.9233 0.497453 66.2212 0.497453H65.6692L62.546 0.409668C63.0302 1.79472 63.3352 3.92594 63.3352 6.93013C63.3352 10.1538 63.0011 12.3728 62.4346 13.7578L65.2382 13.6847L68.0708 13.7578C67.6345 12.3893 67.39 10.9661 67.3445 9.52953C69.0441 11.2511 73.9783 10.4757 73.9783 5.47192C73.9783 2.2629 71.9204 0.526716 69.262 0.502331V0.497453ZM67.2913 8.41271C67.2913 8.09571 67.2913 7.77383 67.2913 7.43733V6.72529C67.2913 4.1649 67.7755 1.67279 69.0199 1.67279C71.0294 1.67279 69.6397 7.30077 67.301 8.41271" fill="#229821"/>
</svg>
