<svg width="77" height="76" viewBox="0 0 77 76" fill="none" xmlns="http://www.w3.org/2000/svg">
<path d="M38 0L43.0528 6.09767L49.7426 1.85985L52.6639 9.22049L60.3358 7.25735L60.8396 15.1604L68.7426 15.6642L66.7795 23.3361L74.1402 26.2574L69.9023 32.9472L76 38L69.9023 43.0528L74.1402 49.7426L66.7795 52.6639L68.7426 60.3358L60.8396 60.8396L60.3358 68.7426L52.6639 66.7795L49.7426 74.1402L43.0528 69.9023L38 76L32.9472 69.9023L26.2574 74.1402L23.3361 66.7795L15.6642 68.7426L15.1604 60.8396L7.25735 60.3358L9.22049 52.6639L1.85985 49.7426L6.09767 43.0528L0 38L6.09767 32.9472L1.85985 26.2574L9.22049 23.3361L7.25735 15.6642L15.1604 15.1604L15.6642 7.25735L23.3361 9.22049L26.2574 1.85985L32.9472 6.09767L38 0Z" fill="#229821"/>
<path d="M24.2583 38.8151L28.9165 45.3633H25.4992L22.6356 41.1442L19.772 45.3633H16.4502L21.0702 38.8724L16.5838 32.5724H20.0011L22.712 36.5624L25.5183 32.5724H28.6492L24.2583 38.8151ZM33.111 41.2206L39.1819 32.5724H41.9119V45.3633H39.1819V36.7151L33.111 45.3633H30.4001V32.5724H33.111V41.2206ZM43.5458 32.5724H54.8476V35.2069H50.5522V45.3633H47.8222V35.2069H43.5458V32.5724ZM56.9054 41.1251L56.7336 32.5724H59.4445L59.2536 41.1251H56.9054ZM56.6954 42.4996H59.4636V45.3633H56.6954V42.4996Z" fill="white"/>
</svg>
