<svg width="77" height="76" viewBox="0 0 77 76" fill="none" xmlns="http://www.w3.org/2000/svg">
<path d="M38 0L43.0528 6.09767L49.7426 1.85985L52.6639 9.22049L60.3358 7.25735L60.8396 15.1604L68.7426 15.6642L66.7795 23.3361L74.1402 26.2574L69.9023 32.9472L76 38L69.9023 43.0528L74.1402 49.7426L66.7795 52.6639L68.7426 60.3358L60.8396 60.8396L60.3358 68.7426L52.6639 66.7795L49.7426 74.1402L43.0528 69.9023L38 76L32.9472 69.9023L26.2574 74.1402L23.3361 66.7795L15.6642 68.7426L15.1604 60.8396L7.25735 60.3358L9.22049 52.6639L1.85985 49.7426L6.09767 43.0528L0 38L6.09767 32.9472L1.85985 26.2574L9.22049 23.3361L7.25735 15.6642L15.1604 15.1604L15.6642 7.25735L23.3361 9.22049L26.2574 1.85985L32.9472 6.09767L38 0Z" fill="#FD3622"/>
<path d="M23.7825 40.9724V32.5724H26.4934V45.3633H23.7825L17.2343 36.4478V45.3633H14.5234V32.5724H17.6161L23.7825 40.9724ZM38.898 45.3633H29.1044V32.5724H38.898V35.2069H31.8153V37.5933H38.0771V40.1133H31.8153V42.7287H38.898V45.3633ZM52.5547 41.0678L54.9602 32.5724H57.8811L54.2156 45.3633H51.1802L48.9274 37.2306L46.6556 45.3633H43.6202L39.9547 32.5724H42.8565L45.2811 41.0869L47.6102 32.5724H50.2256L52.5547 41.0678ZM59.7486 41.1251L59.5767 32.5724H62.2876L62.0967 41.1251H59.7486ZM59.5386 42.4996H62.3067V45.3633H59.5386V42.4996Z" fill="white"/>
</svg>
